<?xml version="1.0" standalone="no"?>
<svg xmlns="http://www.w3.org/2000/svg" xmlns:xlink="http://www.w3.org/1999/xlink" width="1095pt" height="1323pt" viewBox="0.00 0.00 1094.95 1322.8">
<g id="graph0" class="graph" transform="translate(-605.2321710576215,1077.516497794345) scale(2.389994531967742)" data-name="INITIAL">

<polygon fill="white" stroke="none" points="-4,4 -4,-1318.8 1090.95,-1318.8 1090.95,4 -4,4"/>
<!-- init -->
<g id="node1" class="node" pointer-events="visible" data-name="init">

<text text-anchor="middle" x="51.6" y="-722.8" font-family="Courier,monospace" font-size="14.00">INITIAL</text>
</g>
<!-- N0xc91400010 -->
<g id="node2" class="node" pointer-events="visible" data-name="STATE_INITIAL" data-comment="N0xc91400010">

<ellipse fill="none" stroke="black" cx="186.63" cy="-727" rx="46.36" ry="18"/>
<text text-anchor="middle" x="186.63" y="-722.8" font-family="ArialNarrow" font-size="14.00">INITIAL</text>
</g>
<!-- init&#45;&gt;N0xc91400010 -->
<g id="edge1" class="edge" data-name="init-&gt;STATE_INITIAL" data-comment="init-&gt;N0xc91400010">

<path fill="none" stroke="black" d="M103.66,-727C111.92,-727 120.52,-727 128.9,-727"/>
<polygon fill="black" stroke="black" points="128.64,-730.5 138.64,-727 128.64,-723.5 128.64,-730.5"/>
</g>
<!-- N0xc914007f0 -->
<g id="node3" class="node" pointer-events="visible" data-name="STATE_UNK" data-comment="N0xc914007f0">

<ellipse fill="none" stroke="rgb(229,229,229)" cx="428.47" cy="-1147" rx="50.43" ry="18"/>
<ellipse fill="none" stroke="rgb(229,229,229)" cx="428.47" cy="-1147" rx="54.42" ry="22"/>
<text text-anchor="middle" x="428.47" y="-1142.8" font-family="ArialNarrow" font-size="14.00">UNK [13]</text>
</g>
<!-- N0xc91400010&#45;&gt;N0xc914007f0 -->
<g id="edge2" class="edge" data-name="STATE_INITIAL-&gt;STATE_UNK" data-comment="N0xc91400010-&gt;N0xc914007f0">

<path fill="none" stroke="rgb(229,229,229)" d="M188.3,-745.44C191.84,-837.91 209.79,-1248.15 251.06,-1285 306.52,-1334.51 377.53,-1233.11 409.93,-1178.59"/>
<polygon fill="rgb(229,229,229)" stroke="rgb(229,229,229)" points="412.93,-1180.39 414.94,-1169.99 406.88,-1176.87 412.93,-1180.39"/>
<text text-anchor="middle" x="280.47" y="-1302.2" font-family="Courier,monospace" font-size="14.00">\0-\b</text>
</g>
<!-- N0xc91400010&#45;&gt;N0xc914007f0 -->
<g id="edge5" class="edge" data-name="STATE_INITIAL-&gt;STATE_UNK" data-comment="N0xc91400010-&gt;N0xc914007f0">

<path fill="none" stroke="rgb(229,229,229)" d="M188.46,-745.28C192.64,-833.34 212.73,-1211.07 251.06,-1245 298.97,-1287.4 368.29,-1219.45 404.09,-1177" style=""/>
<polygon fill="rgb(229,229,229)" stroke="rgb(229,229,229)" points="406.79,-1179.24 410.45,-1169.29 401.39,-1174.78 406.79,-1179.24"/>
<text text-anchor="middle" x="280.47" y="-1262.2" font-family="Courier,monospace" font-size="14.00" style="">\v-\x1f</text>
</g>
<!-- N0xc91400010&#45;&gt;N0xc914007f0 -->
<g id="edge9" class="edge" data-name="STATE_INITIAL-&gt;STATE_UNK" data-comment="N0xc91400010-&gt;N0xc914007f0">

<path fill="none" stroke="rgb(229,229,229)" d="M188.66,-745.24C193.54,-829.01 215.68,-1174 251.06,-1205 292.6,-1241.38 357.51,-1203.12 395.94,-1173.81" style=""/>
<polygon fill="rgb(229,229,229)" stroke="rgb(229,229,229)" points="397.75,-1176.84 403.45,-1167.91 393.42,-1171.34 397.75,-1176.84"/>
<text text-anchor="middle" x="280.47" y="-1223.2" font-family="Courier,monospace" font-size="14.00" style="">#-$</text>
</g>
<!-- N0xc91400010&#45;&gt;N0xc914007f0 -->
<g id="edge12" class="edge" data-name="STATE_INITIAL-&gt;STATE_UNK" data-comment="N0xc91400010-&gt;N0xc914007f0">

<path fill="none" stroke="rgb(229,229,229)" d="M187.28,-745.43C186.24,-821.44 186.65,-1109.24 251.06,-1165 286.7,-1195.85 342.81,-1183.36 382.15,-1168.34" style=""/>
<polygon fill="rgb(229,229,229)" stroke="rgb(229,229,229)" points="383.4,-1171.61 391.37,-1164.63 380.79,-1165.11 383.4,-1171.61"/>
<text text-anchor="middle" x="280.47" y="-1188.2" font-family="Courier,monospace" font-size="14.00" style="">'</text>
</g>
<!-- N0xc91400010&#45;&gt;N0xc914007f0 -->
<g id="edge14" class="edge" data-name="STATE_INITIAL-&gt;STATE_UNK" data-comment="N0xc91400010-&gt;N0xc914007f0">

<path fill="none" stroke="rgb(229,229,229)" d="M187.76,-745.22C188.66,-816.02 195.72,-1071.51 251.06,-1125 266.75,-1140.16 318.9,-1145.29 362.47,-1146.84" style=""/>
<polygon fill="rgb(229,229,229)" stroke="rgb(229,229,229)" points="362.3,-1150.33 372.4,-1147.13 362.5,-1143.34 362.3,-1150.33"/>
<text text-anchor="middle" x="280.47" y="-1146.2" font-family="Courier,monospace" font-size="14.00" style="">.</text>
</g>
<!-- N0xc91400010&#45;&gt;N0xc914007f0 -->
<g id="edge22" class="edge" data-name="STATE_INITIAL-&gt;STATE_UNK" data-comment="N0xc91400010-&gt;N0xc914007f0">

<path fill="none" stroke="rgb(229,229,229)" d="M188.45,-745.34C191.74,-811 206.04,-1033.18 251.06,-1085 269.1,-1105.76 283.88,-1095.23 309.87,-1104.2 331.9,-1111.8 356.1,-1120.54 376.8,-1128.14" style=""/>
<polygon fill="rgb(229,229,229)" stroke="rgb(229,229,229)" points="375.57,-1131.41 386.16,-1131.58 377.99,-1124.84 375.57,-1131.41"/>
<text text-anchor="middle" x="280.47" y="-1108.2" font-family="Courier,monospace" font-size="14.00" style="">?-@</text>
</g>
<!-- N0xc91400010&#45;&gt;N0xc914007f0 -->
<g id="edge24" class="edge" data-name="STATE_INITIAL-&gt;STATE_UNK" data-comment="N0xc91400010-&gt;N0xc914007f0">

<path fill="none" stroke="rgb(229,229,229)" d="M188.9,-745.38C193.45,-806.21 210.88,-999.74 251.06,-1045 269.32,-1065.56 285.29,-1051.88 309.87,-1064.2 340.48,-1079.54 372.03,-1102.2 394.74,-1119.94" style=""/>
<polygon fill="rgb(229,229,229)" stroke="rgb(229,229,229)" points="392.4,-1122.55 402.41,-1126.02 396.75,-1117.06 392.4,-1122.55"/>
<text text-anchor="middle" x="280.47" y="-1068.2" font-family="Courier,monospace" font-size="14.00" style="">[-^</text>
</g>
<!-- N0xc91400010&#45;&gt;N0xc914007f0 -->
<g id="edge26" class="edge" data-name="STATE_INITIAL-&gt;STATE_UNK" data-comment="N0xc91400010-&gt;N0xc914007f0">

<path fill="none" stroke="rgb(229,229,229)" d="M189.48,-745.38C195.4,-801.03 215.69,-966.24 251.06,-1005 269.6,-1025.31 286.6,-1009.56 309.87,-1024.2 348.94,-1048.76 384.14,-1089.12 405.64,-1116.82" style=""/>
<polygon fill="rgb(229,229,229)" stroke="rgb(229,229,229)" points="402.63,-1118.65 411.47,-1124.48 408.2,-1114.41 402.63,-1118.65"/>
<text text-anchor="middle" x="280.47" y="-1028.2" font-family="Courier,monospace" font-size="14.00" style="">`</text>
</g>
<!-- N0xc91400010&#45;&gt;N0xc914007f0 -->
<g id="edge31" class="edge" data-name="STATE_INITIAL-&gt;STATE_UNK" data-comment="N0xc91400010-&gt;N0xc914007f0">

<path fill="none" stroke="rgb(229,229,229)" d="M187.25,-745.2C187.34,-788.47 193.57,-898.62 251.06,-962 269.83,-982.69 287.68,-967.22 309.87,-984.2 356.37,-1019.78 392.47,-1078.73 411.8,-1115.08" style=""/>
<polygon fill="rgb(229,229,229)" stroke="rgb(229,229,229)" points="408.61,-1116.54 416.33,-1123.8 414.83,-1113.31 408.61,-1116.54"/>
<text text-anchor="middle" x="280.47" y="-988.2" font-family="Courier,monospace" font-size="14.00" style="">~-\xff</text>
</g>
<!-- N0xc91400760 -->
<g id="node4" class="node" pointer-events="visible" data-name="STATE_WHITESPACE" data-comment="N0xc91400760">

<ellipse fill="none" stroke="rgb(229,229,229)" cx="428.47" cy="-907" rx="85.74" ry="18"/>
<ellipse fill="none" stroke="rgb(229,229,229)" cx="428.47" cy="-907" rx="89.74" ry="22"/>
<text text-anchor="middle" x="428.47" y="-902.8" font-family="ArialNarrow" font-size="14.00">WHITESPACE [1]</text>
</g>
<!-- N0xc91400010&#45;&gt;N0xc91400760 -->
<g id="edge3" class="edge" data-name="STATE_INITIAL-&gt;STATE_WHITESPACE" data-comment="N0xc91400010-&gt;N0xc91400760">

<path fill="none" stroke="rgb(229,229,229)" d="M187.04,-745.47C186.87,-786.02 192.89,-882.55 251.06,-925 286.03,-950.52 335.81,-942.57 373.58,-930.22"/>
<polygon fill="rgb(229,229,229)" stroke="rgb(229,229,229)" points="374.66,-933.55 382.96,-926.96 372.36,-926.94 374.66,-933.55"/>
<text text-anchor="middle" x="280.47" y="-945.2" font-family="Courier,monospace" font-size="14.00">\t</text>
</g>
<!-- N0xc91400010&#45;&gt;N0xc91400760 -->
<g id="edge4" class="edge" data-name="STATE_INITIAL-&gt;STATE_WHITESPACE" data-comment="N0xc91400010-&gt;N0xc91400760">

<path fill="none" stroke="rgb(229,229,229)" d="M189.15,-745.46C192.98,-779.18 206.23,-850.45 251.06,-885 263.75,-894.77 295.13,-900.24 327.98,-903.28" style=""/>
<polygon fill="rgb(229,229,229)" stroke="rgb(229,229,229)" points="327.38,-906.74 337.64,-904.1 327.97,-899.77 327.38,-906.74"/>
<text text-anchor="middle" x="280.47" y="-905.2" font-family="Courier,monospace" font-size="14.00" style="">\n</text>
</g>
<!-- N0xc914000a0 -->
<g id="edge6" class="edge" data-name="STATE_INITIAL-&gt;STATE_WHITESPACE" data-comment="N0xc914000a0">

<path fill="none" stroke="rgb(229,229,229)" d="M193.21,-744.96C201.8,-769.83 220.54,-814.66 251.06,-841 253.43,-843.05 316.19,-866.3 366.18,-884.63" style=""/>
<polygon fill="rgb(229,229,229)" stroke="rgb(229,229,229)" points="364.93,-887.9 375.53,-888.05 367.34,-881.33 364.93,-887.9"/>
<text text-anchor="middle" x="280.47" y="-867.2" font-family="Courier,monospace" font-size="14.00" style="">\x20</text>
</g>
<!-- N0xc91400010&#45;&gt;N0xc914000a0 -->
<g id="node5" class="node" pointer-events="visible" data-name="STATE_OP_NOT" data-comment="N0xc91400010-&gt;N0xc914000a0">

<ellipse fill="none" stroke="rgb(229,229,229)" cx="428.47" cy="-839" rx="61.95" ry="18"/>
<ellipse fill="none" stroke="rgb(229,229,229)" cx="428.47" cy="-839" rx="65.96" ry="22"/>
<text text-anchor="middle" x="428.47" y="-834.8" font-family="ArialNarrow" font-size="14.00">OP_NOT [9]</text>
</g>
<!-- N0xc91400250 -->
<g id="edge7" class="edge" data-name="STATE_INITIAL-&gt;STATE_OP_NOT" data-comment="N0xc91400250">

<path fill="none" stroke="rgb(229,229,229)" d="M199.03,-744.74C210.31,-760.83 229.04,-783.97 251.06,-797 281.98,-815.29 320.38,-825.62 353.45,-831.45"/>
<polygon fill="rgb(229,229,229)" stroke="rgb(229,229,229)" points="352.52,-834.84 362.95,-833.01 353.66,-827.94 352.52,-834.84"/>
<text text-anchor="middle" x="280.47" y="-824.2" font-family="Courier,monospace" font-size="14.00">!</text>
</g>
<!-- N0xc91400010&#45;&gt;N0xc91400250 -->
<g id="node6" class="node" pointer-events="visible" data-name="STATE_STRING_START" data-comment="N0xc91400010-&gt;N0xc91400250">

<ellipse fill="none" stroke="rgb(229,229,229)" cx="428.47" cy="-776" rx="82.82" ry="18"/>
<ellipse fill="none" stroke="rgb(229,229,229)" cx="428.47" cy="-776" rx="86.82" ry="22"/>
<text text-anchor="middle" x="428.47" y="-771.8" font-family="ArialNarrow" font-size="14.00">STR_START [13]</text>
</g>
<!-- N0xc91400640 -->
<g id="edge8" class="edge" data-name="STATE_INITIAL-&gt;STATE_STRING_START" data-comment="N0xc91400640">

<path fill="none" stroke="rgb(229,229,229)" d="M208.71,-743.13C220.5,-751.22 235.86,-760.28 251.06,-765 276.32,-772.84 304.57,-776.65 330.93,-778.25"/>
<polygon fill="rgb(229,229,229)" stroke="rgb(229,229,229)" points="330.42,-781.73 340.58,-778.73 330.77,-774.74 330.42,-781.73"/>
<text text-anchor="middle" x="280.47" y="-780.2" font-family="Courier,monospace" font-size="14.00">"</text>
</g>
<!-- N0xc91400010&#45;&gt;N0xc91400640 -->
<g id="node7" class="node" pointer-events="visible" data-name="STATE_SINGLE_OP" data-comment="N0xc91400010-&gt;N0xc91400640">

<ellipse fill="none" stroke="rgb(229,229,229)" cx="428.47" cy="-664" rx="76.42" ry="18"/>
<ellipse fill="none" stroke="rgb(229,229,229)" cx="428.47" cy="-664" rx="80.43" ry="22"/>
<text text-anchor="middle" x="428.47" y="-659.8" font-family="ArialNarrow" font-size="14.00">SINGLE_OP [9]</text>
</g>
<!-- N0xc91400520 -->
<g id="edge10" class="edge" data-name="STATE_INITIAL-&gt;STATE_SINGLE_OP" data-comment="N0xc91400520">

<path fill="none" stroke="rgb(229,229,229)" d="M232.12,-731.13C255.59,-732.1 284.66,-731.37 309.87,-725 337.53,-718.01 365.98,-703.48 387.97,-690.36"/>
<polygon fill="rgb(229,229,229)" stroke="rgb(229,229,229)" points="389.61,-693.46 396.31,-685.25 385.95,-687.49 389.61,-693.46"/>
<text text-anchor="middle" x="280.47" y="-735.2" font-family="Courier,monospace" font-size="14.00">%</text>
</g>
<!-- N0xc91400010&#45;&gt;N0xc91400520 -->
<g id="edge13" class="edge" data-name="STATE_INITIAL-&gt;STATE_SINGLE_OP" data-comment="N0xc91400010-&gt;N0xc91400520">

<path fill="none" stroke="rgb(229,229,229)" d="M220.63,-714.28C230.36,-710.77 241.07,-707.12 251.06,-704.2 283.7,-694.66 320.27,-686 351.62,-679.18" style=""/>
<polygon fill="rgb(229,229,229)" stroke="rgb(229,229,229)" points="351.95,-682.69 360.99,-677.16 350.48,-675.84 351.95,-682.69"/>
<text text-anchor="middle" x="280.47" y="-708.2" font-family="Courier,monospace" font-size="14.00" style="">(--</text>
</g>
<!-- N0xc91400010&#45;&gt;N0xc91400520 -->
<g id="edge15" class="edge" data-name="STATE_INITIAL-&gt;STATE_SINGLE_OP" data-comment="N0xc91400010-&gt;N0xc91400520">

<path fill="none" stroke="rgb(229,229,229)" d="M200.21,-709.43C211.64,-695.08 229.9,-675.83 251.06,-667.2 280.24,-655.31 314.45,-652.46 344.94,-653.3" style=""/>
<polygon fill="rgb(229,229,229)" stroke="rgb(229,229,229)" points="344.77,-656.79 354.91,-653.73 345.07,-649.8 344.77,-656.79"/>
<text text-anchor="middle" x="280.47" y="-671.2" font-family="Courier,monospace" font-size="14.00" style="">/</text>
</g>
<!-- N0xc91400010&#45;&gt;N0xc91400520 -->
<g id="edge18" class="edge" data-name="STATE_INITIAL-&gt;STATE_SINGLE_OP" data-comment="N0xc91400010-&gt;N0xc91400520">

<path fill="none" stroke="rgb(229,229,229)" d="M193.84,-708.84C202.62,-686.38 221.03,-649.15 251.06,-633.2 270.22,-623.03 320.9,-633.09 363.05,-644.36" style=""/>
<polygon fill="rgb(229,229,229)" stroke="rgb(229,229,229)" points="362.09,-647.72 372.66,-646.99 363.94,-640.97 362.09,-647.72"/>
<text text-anchor="middle" x="280.47" y="-637.2" font-family="Courier,monospace" font-size="14.00" style="">;</text>
</g>
<!-- N0xc91400010&#45;&gt;N0xc91400520 -->
<g id="edge28" class="edge" data-name="STATE_INITIAL-&gt;STATE_SINGLE_OP" data-comment="N0xc91400010-&gt;N0xc91400520">

<path fill="none" stroke="rgb(229,229,229)" d="M191.17,-708.75C197.61,-681.09 214.17,-629.41 251.06,-607.2 273.46,-593.72 286.47,-595.56 309.87,-607.2 321.75,-613.11 317.09,-623.28 327.87,-631 336.14,-636.92 345.53,-641.83 355.17,-645.88" style=""/>
<polygon fill="rgb(229,229,229)" stroke="rgb(229,229,229)" points="353.69,-649.06 364.28,-649.41 356.21,-642.53 353.69,-649.06"/>
<text text-anchor="middle" x="280.47" y="-611.2" font-family="Courier,monospace" font-size="14.00" style="">{</text>
</g>
<!-- N0xc91400010&#45;&gt;N0xc91400520 -->
<g id="edge30" class="edge" data-name="STATE_INITIAL-&gt;STATE_SINGLE_OP" data-comment="N0xc91400010-&gt;N0xc91400520">

<path fill="none" stroke="rgb(229,229,229)" d="M189.09,-708.58C192.81,-675.39 205.88,-606.22 251.06,-576.2 272.84,-561.74 288.7,-560.87 309.87,-576.2 330.64,-591.24 309.77,-612.85 327.87,-631 334.41,-637.56 342.28,-642.81 350.69,-647.02" style=""/>
<polygon fill="rgb(229,229,229)" stroke="rgb(229,229,229)" points="349.23,-650.2 359.79,-651.04 352.06,-643.8 349.23,-650.2"/>
<text text-anchor="middle" x="280.47" y="-580.2" font-family="Courier,monospace" font-size="14.00" style="">}</text>
</g>
<!-- N0xc91400010&#45;&gt;N0xc91400520 -->
<g id="node8" class="node" pointer-events="visible" data-name="STATE_AMPERSAND" data-comment="N0xc91400010-&gt;N0xc91400520">

<ellipse fill="none" stroke="rgb(229,229,229)" cx="428.47" cy="-600" rx="84.06" ry="18"/>
<ellipse fill="none" stroke="rgb(229,229,229)" cx="428.47" cy="-600" rx="88.05" ry="22"/>
<text text-anchor="middle" x="428.47" y="-595.8" font-family="ArialNarrow" font-size="14.00">AMPERSAND [9]</text>
</g>
<!-- N0xc91400490 -->
<g id="edge11" class="edge" data-name="STATE_INITIAL-&gt;STATE_AMPERSAND" data-comment="N0xc91400490">

<path fill="none" stroke="rgb(229,229,229)" d="M187.59,-708.75C188.6,-670.58 197.01,-582.66 251.06,-544.2 272.36,-529.05 285.97,-533.63 309.87,-544.2 320.75,-549.01 317.99,-557.38 327.87,-564 336.83,-570 346.91,-575.14 357.13,-579.49"/>
<polygon fill="rgb(229,229,229)" stroke="rgb(229,229,229)" points="355.79,-582.73 366.38,-583.19 358.39,-576.23 355.79,-582.73"/>
<text text-anchor="middle" x="280.47" y="-548.2" font-family="Courier,monospace" font-size="14.00">&amp;</text>
</g>
<!-- N0xc91400010&#45;&gt;N0xc91400490 -->
<g id="node9" class="node" pointer-events="visible" data-name="STATE_FIRST_INT_LIT" data-comment="N0xc91400010-&gt;N0xc91400490">

<ellipse fill="none" stroke="rgb(229,229,229)" cx="428.47" cy="-533" rx="96.69" ry="18" style=""/>
<ellipse fill="none" stroke="rgb(229,229,229)" cx="428.47" cy="-533" rx="100.69" ry="22" style=""/>
<text text-anchor="middle" x="428.47" y="-528.8" font-family="ArialNarrow" font-size="14.00" style="">FIRST_INT_LIT [10]</text>
</g>
<!-- N0xc914005b0 -->
<g id="edge16" class="edge" data-name="STATE_INITIAL-&gt;STATE_FIRST_INT_LIT" data-comment="N0xc914005b0">

<path fill="none" stroke="rgb(229,229,229)" d="M190.24,-708.79C197.4,-661.56 219.03,-537.11 251.06,-513.2 266.75,-501.49 310.32,-506.28 350.23,-514.08"/>
<polygon fill="rgb(229,229,229)" stroke="rgb(229,229,229)" points="349.38,-517.48 359.88,-516.04 350.78,-510.62 349.38,-517.48"/>
<text text-anchor="middle" x="280.47" y="-517.2" font-family="Courier,monospace" font-size="14.00" style="">0-9</text>
</g>
<!-- N0xc91400010&#45;&gt;N0xc914005b0 -->
<g id="node10" class="node" pointer-events="visible" data-name="STATE_COLON" data-comment="N0xc91400010-&gt;N0xc914005b0">

<ellipse fill="none" stroke="rgb(229,229,229)" cx="428.47" cy="-471" rx="62.61" ry="18"/>
<ellipse fill="none" stroke="rgb(229,229,229)" cx="428.47" cy="-471" rx="66.6" ry="22"/>
<text text-anchor="middle" x="428.47" y="-466.8" font-family="ArialNarrow" font-size="14.00">COLON [13]</text>
</g>
<!-- N0xc91400130 -->
<g id="edge17" class="edge" data-name="STATE_INITIAL-&gt;STATE_COLON" data-comment="N0xc91400130">

<path fill="none" stroke="rgb(229,229,229)" d="M189.7,-708.85C195.92,-657.74 216.21,-514.39 251.06,-485.2 280.39,-460.63 322.93,-456.6 358.88,-458.95"/>
<polygon fill="rgb(229,229,229)" stroke="rgb(229,229,229)" points="358.53,-462.43 368.79,-459.79 359.12,-455.46 358.53,-462.43"/>
<text text-anchor="middle" x="280.47" y="-489.2" font-family="Courier,monospace" font-size="14.00">:</text>
</g>
<!-- N0xc91400010&#45;&gt;N0xc91400130 -->
<g id="node11" class="node" pointer-events="visible" data-name="STATE_OP_LT" data-comment="N0xc91400010-&gt;N0xc91400130">

<ellipse fill="none" stroke="rgb(229,229,229)" cx="428.47" cy="-409" rx="53.85" ry="18"/>
<ellipse fill="none" stroke="rgb(229,229,229)" cx="428.47" cy="-409" rx="57.86" ry="22"/>
<text text-anchor="middle" x="428.47" y="-404.8" font-family="ArialNarrow" font-size="14.00">OP_LT [9]</text>
</g>
<!-- N0xc914002e0 -->
<g id="edge19" class="edge" data-name="STATE_INITIAL-&gt;STATE_OP_LT" data-comment="N0xc914002e0">

<path fill="none" stroke="rgb(229,229,229)" d="M189.08,-708.62C193.98,-651.37 211.85,-477.78 251.06,-440.2 279.76,-412.7 323.76,-404.88 360.63,-403.95"/>
<polygon fill="rgb(229,229,229)" stroke="rgb(229,229,229)" points="360.34,-407.45 370.31,-403.87 360.29,-400.45 360.34,-407.45"/>
<text text-anchor="middle" x="280.47" y="-444.2" font-family="Courier,monospace" font-size="14.00">&lt;</text>
</g>
<!-- N0xc91400010&#45;&gt;N0xc914002e0 -->
<g id="node12" class="node" pointer-events="visible" data-name="STATE_OP_ASSIGN" data-comment="N0xc91400010-&gt;N0xc914002e0">

<ellipse fill="none" stroke="rgb(229,229,229)" cx="428.47" cy="-347" rx="76.54" ry="18"/>
<ellipse fill="none" stroke="rgb(229,229,229)" cx="428.47" cy="-347" rx="80.53" ry="22"/>
<text text-anchor="middle" x="428.47" y="-342.8" font-family="ArialNarrow" font-size="14.00">OP_ASSIGN [9]</text>
</g>
<!-- N0xc914001c0 -->
<g id="edge20" class="edge" data-name="STATE_INITIAL-&gt;STATE_OP_ASSIGN" data-comment="N0xc914001c0">

<path fill="none" stroke="rgb(229,229,229)" d="M188.52,-708.7C191.95,-645.24 206.53,-435.98 251.06,-389.2 273.11,-366.04 305.42,-354.62 336.38,-349.26"/>
<polygon fill="rgb(229,229,229)" stroke="rgb(229,229,229)" points="336.84,-352.73 346.2,-347.77 335.79,-345.81 336.84,-352.73"/>
<text text-anchor="middle" x="280.47" y="-393.2" font-family="Courier,monospace" font-size="14.00">=</text>
</g>
<!-- N0xc91400010&#45;&gt;N0xc914001c0 -->
<g id="node13" class="node" pointer-events="visible" data-name="STATE_OP_GT" data-comment="N0xc91400010-&gt;N0xc914001c0">

<ellipse fill="none" stroke="black" cx="428.47" cy="-285" rx="54.53" ry="18"/>
<ellipse fill="none" stroke="black" cx="428.47" cy="-285" rx="58.51" ry="22"/>
<text text-anchor="middle" x="428.47" y="-280.8" font-family="ArialNarrow" font-size="14.00">OP_GT [9]</text>
</g>
<!-- N0xc91400370 -->
<g id="edge21" class="edge" data-name="STATE_INITIAL-&gt;STATE_OP_GT" data-comment="N0xc91400370">

<path fill="none" stroke="black" d="M188.05,-708.77C190.02,-639.09 200.54,-390.72 251.06,-334.2 277.95,-304.13 321.51,-291.78 358.62,-286.97"/>
<polygon fill="black" stroke="black" points="358.85,-290.47 368.4,-285.88 358.08,-283.51 358.85,-290.47"/>
<text text-anchor="middle" x="280.47" y="-338.2" font-family="Courier,monospace" font-size="14.00">&gt;</text>
</g>
<!-- N0xc91400010&#45;&gt;N0xc91400370 -->
<g id="node14" class="node" pointer-events="visible" data-name="STATE_FIRST_IDENT" data-comment="N0xc91400010-&gt;N0xc91400370">

<ellipse fill="none" stroke="rgb(229,229,229)" cx="428.47" cy="-187" rx="89.75" ry="18" style=""/>
<ellipse fill="none" stroke="rgb(229,229,229)" cx="428.47" cy="-187" rx="93.75" ry="22" style=""/>
<text text-anchor="middle" x="428.47" y="-182.8" font-family="ArialNarrow" font-size="14.00" style="">FIRST_IDENT [12]</text>
</g>
<!-- N0xc914006d0 -->
<g id="edge23" class="edge" data-name="STATE_INITIAL-&gt;STATE_FIRST_IDENT" data-comment="N0xc914006d0">

<path fill="none" stroke="rgb(229,229,229)" d="M188.02,-708.57C189.92,-633.11 200.38,-348.33 251.06,-277.2 253.12,-274.32 325.51,-237.83 376.9,-212.16"/>
<polygon fill="rgb(229,229,229)" stroke="rgb(229,229,229)" points="378.46,-215.29 385.84,-207.69 375.33,-209.03 378.46,-215.29"/>
<text text-anchor="middle" x="280.47" y="-281.2" font-family="Courier,monospace" font-size="14.00" style="">A-Z</text>
</g>
<!-- N0xc91400010&#45;&gt;N0xc914006d0 -->
<g id="edge25" class="edge" data-name="STATE_INITIAL-&gt;STATE_FIRST_IDENT" data-comment="N0xc91400010-&gt;N0xc914006d0">

<path fill="none" stroke="rgb(229,229,229)" d="M187.24,-708.56C185.89,-626.78 184.7,-297.64 251.06,-225.2 257.56,-218.11 298.38,-209.04 339.12,-201.51"/>
<polygon fill="rgb(229,229,229)" stroke="rgb(229,229,229)" points="339.59,-204.98 348.81,-199.75 338.34,-198.1 339.59,-204.98"/>
<text text-anchor="middle" x="280.47" y="-229.2" font-family="Courier,monospace" font-size="14.00" style="">_</text>
</g>
<!-- N0xc91400010&#45;&gt;N0xc914006d0 -->
<g id="edge27" class="edge" data-name="STATE_INITIAL-&gt;STATE_FIRST_IDENT" data-comment="N0xc91400010-&gt;N0xc914006d0">

<path fill="none" stroke="rgb(229,229,229)" d="M188.37,-708.53C192.19,-617.74 211.07,-221.78 251.06,-186.2 280.1,-160.37 323.68,-160.34 360.26,-166.88"/>
<polygon fill="rgb(229,229,229)" stroke="rgb(229,229,229)" points="359.39,-170.28 369.88,-168.81 360.76,-163.41 359.39,-170.28"/>
<text text-anchor="middle" x="280.47" y="-190.2" font-family="Courier,monospace" font-size="14.00" style="">a-z</text>
</g>
<!-- N0xc91400010&#45;&gt;N0xc914006d0 -->
<g id="node15" class="node" pointer-events="visible" data-name="STATE_PIPE" data-comment="N0xc91400010-&gt;N0xc914006d0">

<ellipse fill="none" stroke="rgb(229,229,229)" cx="428.47" cy="-74" rx="49.3" ry="18"/>
<ellipse fill="none" stroke="rgb(229,229,229)" cx="428.47" cy="-74" rx="53.29" ry="22"/>
<text text-anchor="middle" x="428.47" y="-69.8" font-family="ArialNarrow" font-size="14.00">PIPE [13]</text>
</g>
<!-- N0xc91400400 -->
<g id="edge29" class="edge" data-name="STATE_INITIAL-&gt;STATE_PIPE" data-comment="N0xc91400400">

<path fill="none" stroke="rgb(229,229,229)" d="M188.51,-708.62C193.13,-614.51 215.85,-189.27 251.06,-143.2 278.3,-107.56 326.58,-90.25 365.74,-81.86"/>
<polygon fill="rgb(229,229,229)" stroke="rgb(229,229,229)" points="366.17,-85.34 375.3,-79.97 364.81,-78.48 366.17,-85.34"/>
<text text-anchor="middle" x="280.47" y="-147.2" font-family="Courier,monospace" font-size="14.00">|</text>
</g>
<!-- N0xc91400010&#45;&gt;N0xc91400400 -->
<g id="node18" class="node" pointer-events="visible" data-name="STATE_OP_NEQ" data-comment="N0xc91400010-&gt;N0xc91400400">

<ellipse fill="none" stroke="rgb(229,229,229)" cx="715.55" cy="-960" rx="61.95" ry="18"/>
<ellipse fill="none" stroke="rgb(229,229,229)" cx="715.55" cy="-960" rx="65.96" ry="22"/>
<text text-anchor="middle" x="715.55" y="-955.8" font-family="ArialNarrow" font-size="14.00">OP_NEQ [4]</text>
</g>
<!-- N0xc914009a0 -->
<g id="edge34" class="edge" data-name="STATE_OP_NOT-&gt;STATE_OP_NEQ" data-comment="N0xc914009a0">

<path fill="none" stroke="rgb(229,229,229)" d="M484.78,-850.85C500.57,-856.39 516.79,-864.42 529.06,-876 543.54,-889.66 531.9,-904.12 547.06,-917 572.43,-938.55 607.25,-949.5 638.57,-954.99"/>
<polygon fill="rgb(229,229,229)" stroke="rgb(229,229,229)" points="638,-958.44 648.43,-956.54 639.09,-951.53 638,-958.44"/>
<text text-anchor="middle" x="572.27" y="-947.2" font-family="Courier,monospace" font-size="14.00">=</text>
</g>
<!-- N0xc91400250&#45;&gt;N0xc914009a0 -->
<g id="node24" class="node" pointer-events="visible" data-name="STATE_STRING_MID" data-comment="N0xc91400250-&gt;N0xc914009a0">

<ellipse fill="none" stroke="rgb(229,229,229)" cx="715.55" cy="-745" rx="52.2" ry="18"/>
<text text-anchor="middle" x="715.55" y="-740.8" font-family="ArialNarrow" font-size="14.00">STR_MID</text>
</g>
<!-- N0xc91400d00 -->
<g id="edge40" class="edge" data-name="STATE_STRING_START-&gt;STATE_STRING_MID" data-comment="N0xc91400d00">

<path fill="none" stroke="rgb(229,229,229)" d="M492.51,-791.12C524.21,-796.52 563.1,-799.77 597.47,-793 624.82,-787.61 653.83,-775.77 676.13,-765.2"/>
<polygon fill="rgb(229,229,229)" stroke="rgb(229,229,229)" points="677.36,-768.49 684.82,-760.96 674.3,-762.19 677.36,-768.49"/>
<text text-anchor="middle" x="572.27" y="-800.2" font-family="Courier,monospace" font-size="14.00">\0-!</text>
</g>
<!-- N0xc91400640&#45;&gt;N0xc91400d00 -->
<g id="edge42" class="edge" data-name="STATE_STRING_START-&gt;STATE_STRING_MID" data-comment="N0xc91400640-&gt;N0xc91400d00">

<path fill="none" stroke="rgb(229,229,229)" d="M508.88,-767.36C554.91,-762.36 611.94,-756.16 654.27,-751.55" style=""/>
<polygon fill="rgb(229,229,229)" stroke="rgb(229,229,229)" points="654.45,-755.06 664.02,-750.5 653.7,-748.1 654.45,-755.06"/>
<text text-anchor="middle" x="572.27" y="-766.2" font-family="Courier,monospace" font-size="14.00" style="">#-[</text>
</g>
<!-- N0xc91400640&#45;&gt;N0xc91400d00 -->
<g id="edge44" class="edge" data-name="STATE_STRING_START-&gt;STATE_STRING_MID" data-comment="N0xc91400640-&gt;N0xc91400d00">

<path fill="none" stroke="rgb(229,229,229)" d="M475.26,-757.12C496.67,-749.28 522.76,-741.11 547.06,-737.2 583.06,-731.42 623.92,-733.16 656.27,-736.45" style=""/>
<polygon fill="rgb(229,229,229)" stroke="rgb(229,229,229)" points="655.51,-739.88 665.83,-737.5 656.27,-732.93 655.51,-739.88"/>
<text text-anchor="middle" x="572.27" y="-741.2" font-family="Courier,monospace" font-size="14.00" style="">]-\xff</text>
</g>
<!-- N0xc91400640&#45;&gt;N0xc91400d00 -->
<g id="node25" class="node" pointer-events="visible" data-name="STATE_STRING_LIT" data-comment="N0xc91400640-&gt;N0xc91400d00">

<ellipse fill="none" stroke="rgb(229,229,229)" cx="998.69" cy="-880" rx="84.02" ry="18"/>
<ellipse fill="none" stroke="rgb(229,229,229)" cx="998.69" cy="-880" rx="88.01" ry="22"/>
<text text-anchor="middle" x="998.69" y="-875.8" font-family="ArialNarrow" font-size="14.00">STRING_LIT [11]</text>
</g>
<!-- N0xc91400e20 -->
<g id="edge41" class="edge" data-name="STATE_STRING_START-&gt;STATE_STRING_LIT" data-comment="N0xc91400e20">

<path fill="none" stroke="rgb(229,229,229)" d="M490.39,-791.78C503.51,-796.21 517.04,-801.6 529.06,-808 572.21,-830.95 569.38,-859.77 615.47,-876 713.76,-910.61 835.28,-904.27 914.55,-894.19"/>
<polygon fill="rgb(229,229,229)" stroke="rgb(229,229,229)" points="914.98,-897.66 924.43,-892.88 914.06,-890.72 914.98,-897.66"/>
<text text-anchor="middle" x="715.55" y="-906.2" font-family="Courier,monospace" font-size="14.00">"</text>
</g>
<!-- N0xc91400640&#45;&gt;N0xc91400e20 -->
<g id="node26" class="node" pointer-events="visible" data-name="STATE_STRING_ESCAPE" data-comment="N0xc91400640-&gt;N0xc91400e20">

<ellipse fill="none" stroke="rgb(229,229,229)" cx="998.69" cy="-744" rx="69.56" ry="18"/>
<text text-anchor="middle" x="998.69" y="-739.8" font-family="ArialNarrow" font-size="14.00">STR_ESCAPE</text>
</g>
<!-- N0xc91400d90 -->
<g id="edge43" class="edge" data-name="STATE_STRING_START-&gt;STATE_STRING_ESCAPE" data-comment="N0xc91400d90">

<path fill="none" stroke="rgb(229,229,229)" d="M466.99,-755.93C503.65,-737.53 561.65,-711.62 615.47,-701.2 736.52,-677.77 772.3,-689.25 892.44,-717 907.23,-720.42 923.13,-724.35 937.97,-728.15"/>
<polygon fill="rgb(229,229,229)" stroke="rgb(229,229,229)" points="937.05,-731.53 947.61,-730.63 938.8,-724.75 937.05,-731.53"/>
<text text-anchor="middle" x="715.55" y="-705.2" font-family="Courier,monospace" font-size="14.00">\</text>
</g>
<!-- N0xc91400640&#45;&gt;N0xc91400d90 -->
<g id="node22" class="node" pointer-events="visible" data-name="STATE_OP_AND" data-comment="N0xc91400640-&gt;N0xc91400d90">

<ellipse fill="none" stroke="rgb(229,229,229)" cx="715.55" cy="-630" rx="62.62" ry="18"/>
<ellipse fill="none" stroke="rgb(229,229,229)" cx="715.55" cy="-630" rx="66.61" ry="22"/>
<text text-anchor="middle" x="715.55" y="-625.8" font-family="ArialNarrow" font-size="14.00">OP_AND [8]</text>
</g>
<!-- N0xc91400be0 -->
<g id="edge38" class="edge" data-name="STATE_AMPERSAND-&gt;STATE_OP_AND" data-comment="N0xc91400be0">

<path fill="none" stroke="rgb(229,229,229)" d="M510.4,-608.52C551.24,-612.81 600.43,-617.99 640.3,-622.19"/>
<polygon fill="rgb(229,229,229)" stroke="rgb(229,229,229)" points="639.73,-625.65 650.04,-623.21 640.46,-618.68 639.73,-625.65"/>
<text text-anchor="middle" x="572.27" y="-620.2" font-family="Courier,monospace" font-size="14.00">&amp;</text>
</g>
<!-- N0xc91400490&#45;&gt;N0xc91400be0 -->
<g id="node23" class="node" pointer-events="visible" data-name="STATE_REST_INT_LIT" data-comment="N0xc91400490-&gt;N0xc91400be0">

<ellipse fill="none" stroke="rgb(229,229,229)" cx="715.55" cy="-533" rx="93.82" ry="18" style=""/>
<ellipse fill="none" stroke="rgb(229,229,229)" cx="715.55" cy="-533" rx="97.82" ry="22" style=""/>
<text text-anchor="middle" x="715.55" y="-528.8" font-family="ArialNarrow" font-size="14.00" style="">REST_INT_LIT [10]</text>
</g>
<!-- N0xc91400c70 -->
<g id="edge39" class="edge" data-name="STATE_FIRST_INT_LIT-&gt;STATE_REST_INT_LIT" data-comment="N0xc91400c70">

<path fill="none" stroke="rgb(229,229,229)" d="M529.58,-533C554.34,-533 580.99,-533 606.13,-533" style=""/>
<polygon fill="rgb(229,229,229)" stroke="rgb(229,229,229)" points="606.05,-536.5 616.05,-533 606.05,-529.5 606.05,-536.5" style=""/>
<text text-anchor="middle" x="572.27" y="-537.2" font-family="Courier,monospace" font-size="14.00" style="">0-9</text>
</g>
<!-- N0xc914005b0&#45;&gt;N0xc91400c70 -->
<g id="node16" class="node" pointer-events="visible" data-name="STATE_ASSIGN_SHORT" data-comment="N0xc914005b0-&gt;N0xc91400c70">

<ellipse fill="none" stroke="rgb(229,229,229)" cx="715.55" cy="-471" rx="96.15" ry="18"/>
<ellipse fill="none" stroke="rgb(229,229,229)" cx="715.55" cy="-471" rx="100.15" ry="22"/>
<text text-anchor="middle" x="715.55" y="-466.8" font-family="ArialNarrow" font-size="14.00">ASSIGN_SHORT [2]</text>
</g>
<!-- N0xc91400880 -->
<g id="edge32" class="edge" data-name="STATE_COLON-&gt;STATE_ASSIGN_SHORT" data-comment="N0xc91400880">

<path fill="none" stroke="rgb(229,229,229)" d="M495.23,-471C527.42,-471 567.05,-471 603.73,-471"/>
<polygon fill="rgb(229,229,229)" stroke="rgb(229,229,229)" points="603.5,-474.5 613.5,-471 603.5,-467.5 603.5,-474.5"/>
<text text-anchor="middle" x="572.27" y="-475.2" font-family="Courier,monospace" font-size="14.00">=</text>
</g>
<!-- N0xc91400130&#45;&gt;N0xc91400880 -->
<g id="node19" class="node" pointer-events="visible" data-name="STATE_OP_LEQ" data-comment="N0xc91400130-&gt;N0xc91400880">

<ellipse fill="none" stroke="rgb(229,229,229)" cx="715.55" cy="-409" rx="60.8" ry="18"/>
<ellipse fill="none" stroke="rgb(229,229,229)" cx="715.55" cy="-409" rx="64.81" ry="22"/>
<text text-anchor="middle" x="715.55" y="-404.8" font-family="ArialNarrow" font-size="14.00">OP_LEQ [5]</text>
</g>
<!-- N0xc91400a30 -->
<g id="edge35" class="edge" data-name="STATE_OP_LT-&gt;STATE_OP_LEQ" data-comment="N0xc91400a30">

<path fill="none" stroke="rgb(229,229,229)" d="M486.82,-409C530.62,-409 591.38,-409 639.12,-409"/>
<polygon fill="rgb(229,229,229)" stroke="rgb(229,229,229)" points="638.82,-412.5 648.82,-409 638.82,-405.5 638.82,-412.5"/>
<text text-anchor="middle" x="572.27" y="-413.2" font-family="Courier,monospace" font-size="14.00">=</text>
</g>
<!-- N0xc914002e0&#45;&gt;N0xc91400a30 -->
<g id="node17" class="node" pointer-events="visible" data-name="STATE_OP_EQ" data-comment="N0xc914002e0-&gt;N0xc91400a30">

<ellipse fill="none" stroke="rgb(229,229,229)" cx="715.55" cy="-347" rx="54.53" ry="18"/>
<ellipse fill="none" stroke="rgb(229,229,229)" cx="715.55" cy="-347" rx="58.51" ry="22"/>
<text text-anchor="middle" x="715.55" y="-342.8" font-family="ArialNarrow" font-size="14.00">OP_EQ [3]</text>
</g>
<!-- N0xc91400910 -->
<g id="edge33" class="edge" data-name="STATE_OP_ASSIGN-&gt;STATE_OP_EQ" data-comment="N0xc91400910">

<path fill="none" stroke="rgb(229,229,229)" d="M509.26,-347C552.17,-347 604.56,-347 645.68,-347"/>
<polygon fill="rgb(229,229,229)" stroke="rgb(229,229,229)" points="645.44,-350.5 655.44,-347 645.44,-343.5 645.44,-350.5"/>
<text text-anchor="middle" x="572.27" y="-351.2" font-family="Courier,monospace" font-size="14.00">=</text>
</g>
<!-- N0xc914001c0&#45;&gt;N0xc91400910 -->
<g id="node20" class="node" pointer-events="visible" data-name="STATE_OP_GEQ" data-comment="N0xc914001c0-&gt;N0xc91400910">

<ellipse fill="none" stroke="black" cx="715.55" cy="-285" rx="61.95" ry="18"/>
<ellipse fill="none" stroke="black" cx="715.55" cy="-285" rx="65.96" ry="22"/>
<text text-anchor="middle" x="715.55" y="-280.8" font-family="ArialNarrow" font-size="14.00">OP_GEQ [6]</text>
</g>
<!-- N0xc91400ac0 -->
<g id="edge36" class="edge" data-name="STATE_OP_GT-&gt;STATE_OP_GEQ" data-comment="N0xc91400ac0">

<path fill="none" stroke="black" d="M487.16,-285C530.52,-285 590.36,-285 637.77,-285"/>
<polygon fill="black" stroke="black" points="637.71,-288.5 647.71,-285 637.71,-281.5 637.71,-288.5"/>
<text text-anchor="middle" x="572.27" y="-289.2" font-family="Courier,monospace" font-size="14.00">=</text>
</g>
<!-- N0xc91400370&#45;&gt;N0xc91400ac0 -->
<g id="node27" class="node" pointer-events="visible" data-name="STATE_REST_IDENT" data-comment="N0xc91400370-&gt;N0xc91400ac0">

<ellipse fill="none" stroke="rgb(229,229,229)" cx="715.55" cy="-84" rx="86.88" ry="18" style=""/>
<ellipse fill="none" stroke="rgb(229,229,229)" cx="715.55" cy="-84" rx="90.88" ry="22" style=""/>
<text text-anchor="middle" x="715.55" y="-79.8" font-family="ArialNarrow" font-size="14.00" style="">REST_IDENT [12]</text>
</g>
<!-- N0xc91400eb0 -->
<g id="edge45" class="edge" data-name="STATE_FIRST_IDENT-&gt;STATE_REST_IDENT" data-comment="N0xc91400eb0">

<path fill="none" stroke="rgb(229,229,229)" d="M521.82,-189.37C547.01,-187.49 573.85,-183.06 597.47,-174 631.71,-160.87 664.23,-134.32 686.27,-113.44" style=""/>
<polygon fill="rgb(229,229,229)" stroke="rgb(229,229,229)" points="688.65,-116.01 693.39,-106.53 683.77,-110.99 688.65,-116.01" style=""/>
<text text-anchor="middle" x="572.27" y="-190.2" font-family="Courier,monospace" font-size="14.00" style="">0-9</text>
</g>
<!-- N0xc914006d0&#45;&gt;N0xc91400eb0 -->
<g id="edge46" class="edge" data-name="STATE_FIRST_IDENT-&gt;STATE_REST_IDENT" data-comment="N0xc914006d0-&gt;N0xc91400eb0">

<path fill="none" stroke="rgb(229,229,229)" d="M489.04,-169.76C521.38,-160.01 561.91,-147.17 597.47,-134 618.47,-126.23 641.18,-116.78 660.96,-108.19" style=""/>
<polygon fill="rgb(229,229,229)" stroke="rgb(229,229,229)" points="662.17,-111.49 669.93,-104.27 659.36,-105.07 662.17,-111.49" style=""/>
<text text-anchor="middle" x="572.27" y="-155.2" font-family="Courier,monospace" font-size="14.00" style="">A-Z</text>
</g>
<!-- N0xc914006d0&#45;&gt;N0xc91400eb0 -->
<g id="edge47" class="edge" data-name="STATE_FIRST_IDENT-&gt;STATE_REST_IDENT" data-comment="N0xc914006d0-&gt;N0xc91400eb0">

<path fill="none" stroke="rgb(229,229,229)" d="M456.35,-165.84C479.2,-148.96 513.54,-126.07 547.06,-113.2 569.78,-104.48 595.24,-98.35 619.31,-94.04" style=""/>
<polygon fill="rgb(229,229,229)" stroke="rgb(229,229,229)" points="619.86,-97.5 629.14,-92.38 618.69,-90.6 619.86,-97.5" style=""/>
<text text-anchor="middle" x="572.27" y="-117.2" font-family="Courier,monospace" font-size="14.00" style="">_</text>
</g>
<!-- N0xc914006d0&#45;&gt;N0xc91400eb0 -->
<g id="edge48" class="edge" data-name="STATE_FIRST_IDENT-&gt;STATE_REST_IDENT" data-comment="N0xc914006d0-&gt;N0xc91400eb0">

<path fill="none" stroke="rgb(229,229,229)" d="M459.88,-165.83C480.76,-150.41 508.34,-128.23 529.06,-105 538.86,-94.01 534.13,-84.23 547.06,-77.2 576.1,-61.41 612.33,-60.97 643.66,-65.36" style=""/>
<polygon fill="rgb(229,229,229)" stroke="rgb(229,229,229)" points="643.03,-68.81 653.46,-66.94 644.14,-61.9 643.03,-68.81" style=""/>
<text text-anchor="middle" x="572.27" y="-81.2" font-family="Courier,monospace" font-size="14.00" style="">a-z</text>
</g>
<!-- N0xc914006d0&#45;&gt;N0xc91400eb0 -->
<g id="node21" class="node" pointer-events="visible" data-name="STATE_OP_OR" data-comment="N0xc914006d0-&gt;N0xc91400eb0">

<ellipse fill="none" stroke="rgb(229,229,229)" cx="715.55" cy="-22" rx="55.11" ry="18"/>
<ellipse fill="none" stroke="rgb(229,229,229)" cx="715.55" cy="-22" rx="59.1" ry="22"/>
<text text-anchor="middle" x="715.55" y="-17.8" font-family="ArialNarrow" font-size="14.00">OP_OR [7]</text>
</g>
<!-- N0xc91400b50 -->
<g id="edge37" class="edge" data-name="STATE_PIPE-&gt;STATE_OP_OR" data-comment="N0xc91400b50">

<path fill="none" stroke="rgb(229,229,229)" d="M468.93,-59.34C491.5,-51.54 520.53,-42.49 547.06,-37.2 578.93,-30.84 614.74,-27.14 645.04,-24.99"/>
<polygon fill="rgb(229,229,229)" stroke="rgb(229,229,229)" points="645.11,-28.49 654.86,-24.33 644.65,-21.51 645.11,-28.49"/>
<text text-anchor="middle" x="572.27" y="-42.2" font-family="Courier,monospace" font-size="14.00">|</text>
</g>
<!-- N0xc91400400&#45;&gt;N0xc91400b50 -->
<g id="edge49" class="edge" data-name="STATE_REST_INT_LIT-&gt;STATE_REST_INT_LIT" data-comment="N0xc91400400-&gt;N0xc91400b50">

<path fill="none" stroke="rgb(229,229,229)" d="M689.22,-554.4C686.34,-564.33 695.12,-573 715.55,-573 727.68,-573 735.7,-569.94 739.62,-565.38" style=""/>
<polygon fill="rgb(229,229,229)" stroke="rgb(229,229,229)" points="742.98,-566.38 741.58,-555.88 736.13,-564.97 742.98,-566.38" style=""/>
<text text-anchor="middle" x="715.55" y="-577.2" font-family="Courier,monospace" font-size="14.00" style="">0-9</text>
</g>
<!-- N0xc91400c70&#45;&gt;N0xc91400c70 -->
<g id="edge50" class="edge" data-name="STATE_STRING_MID-&gt;STATE_STRING_MID" data-comment="N0xc91400c70-&gt;N0xc91400c70">

<path fill="none" stroke="rgb(229,229,229)" d="M706.91,-763.15C705.58,-772.54 708.46,-781 715.55,-781 719.54,-781 722.19,-778.32 723.52,-774.31"/>
<polygon fill="rgb(229,229,229)" stroke="rgb(229,229,229)" points="726.99,-774.86 724.1,-764.66 720,-774.43 726.99,-774.86"/>
<text text-anchor="middle" x="715.55" y="-785.2" font-family="Courier,monospace" font-size="14.00">\0-!</text>
</g>
<!-- N0xc91400d00&#45;&gt;N0xc91400d00 -->
<g id="edge52" class="edge" data-name="STATE_STRING_MID-&gt;STATE_STRING_MID" data-comment="N0xc91400d00-&gt;N0xc91400d00">

<path fill="none" stroke="rgb(229,229,229)" d="M701.32,-762.7C693.46,-780 698.2,-799 715.55,-799 729.24,-799 735.08,-787.17 733.08,-773.68" style=""/>
<polygon fill="rgb(229,229,229)" stroke="rgb(229,229,229)" points="736.44,-772.72 730.22,-764.15 729.74,-774.73 736.44,-772.72"/>
<text text-anchor="middle" x="715.55" y="-803.2" font-family="Courier,monospace" font-size="14.00" style="">#-[</text>
</g>
<!-- N0xc91400d00&#45;&gt;N0xc91400d00 -->
<g id="edge54" class="edge" data-name="STATE_STRING_MID-&gt;STATE_STRING_MID" data-comment="N0xc91400d00-&gt;N0xc91400d00">

<path fill="none" stroke="rgb(229,229,229)" d="M697.91,-762.35C681.27,-786.82 687.15,-817 715.55,-817 740.18,-817 747.88,-794.3 738.63,-772.32" style=""/>
<polygon fill="rgb(229,229,229)" stroke="rgb(229,229,229)" points="741.78,-770.78 733.92,-763.68 735.64,-774.14 741.78,-770.78"/>
<text text-anchor="middle" x="715.55" y="-821.2" font-family="Courier,monospace" font-size="14.00" style="">]-\xff</text>
</g>
<!-- N0xc91400d00&#45;&gt;N0xc91400d00 -->
<g id="edge51" class="edge" data-name="STATE_STRING_MID-&gt;STATE_STRING_LIT" data-comment="N0xc91400d00-&gt;N0xc91400d00">

<path fill="none" stroke="rgb(229,229,229)" d="M745.24,-760.16C768.83,-772.51 803.21,-790.26 833.63,-805 870.12,-822.68 911.67,-841.66 943.83,-856.11"/>
<polygon fill="rgb(229,229,229)" stroke="rgb(229,229,229)" points="941.98,-859.12 952.54,-860.01 944.84,-852.73 941.98,-859.12"/>
<text text-anchor="middle" x="863.03" y="-836.2" font-family="Courier,monospace" font-size="14.00">"</text>
</g>
<!-- N0xc91400d00&#45;&gt;N0xc91400e20 -->
<g id="edge53" class="edge" data-name="STATE_STRING_MID-&gt;STATE_STRING_ESCAPE" data-comment="N0xc91400d00-&gt;N0xc91400e20">

<path fill="none" stroke="rgb(229,229,229)" d="M748.84,-759.32C784.02,-773.16 842.03,-790.82 892.44,-782 912.82,-778.43 934.46,-771.26 952.78,-764.09"/>
<polygon fill="rgb(229,229,229)" stroke="rgb(229,229,229)" points="954.07,-767.35 962.03,-760.35 951.45,-760.86 954.07,-767.35"/>
<text text-anchor="middle" x="863.03" y="-788.2" font-family="Courier,monospace" font-size="14.00">\</text>
</g>
<!-- N0xc91400d00&#45;&gt;N0xc91400d90 -->
<g id="edge55" class="edge" data-name="STATE_STRING_ESCAPE-&gt;STATE_STRING_MID" data-comment="N0xc91400d00-&gt;N0xc91400d90">

<path fill="none" stroke="rgb(229,229,229)" d="M928.71,-744.25C883.15,-744.41 823.91,-744.62 779.61,-744.78"/>
<polygon fill="rgb(229,229,229)" stroke="rgb(229,229,229)" points="779.62,-741.28 769.63,-744.81 779.64,-748.28 779.62,-741.28"/>
<text text-anchor="middle" x="863.03" y="-748.2" font-family="Courier,monospace" font-size="14.00">\0-\t</text>
</g>
<!-- N0xc91400d90&#45;&gt;N0xc91400d00 -->
<g id="edge56" class="edge" data-name="STATE_STRING_ESCAPE-&gt;STATE_STRING_MID" data-comment="N0xc91400d90-&gt;N0xc91400d00">

<path fill="none" stroke="rgb(229,229,229)" d="M946.33,-731.77C929.28,-728.27 910.14,-724.93 892.44,-723.2 866.42,-720.65 859.65,-720.8 833.63,-723.2 812.97,-725.11 790.53,-728.87 770.87,-732.73" style=""/>
<polygon fill="rgb(229,229,229)" stroke="rgb(229,229,229)" points="770.24,-729.29 761.14,-734.71 771.63,-736.15 770.24,-729.29"/>
<text text-anchor="middle" x="863.03" y="-727.2" font-family="Courier,monospace" font-size="14.00" style="">\v-\xff</text>
</g>
<!-- N0xc91400d90&#45;&gt;N0xc91400d00 -->
<g id="edge57" class="edge" data-name="STATE_REST_IDENT-&gt;STATE_REST_IDENT" data-comment="N0xc91400d90-&gt;N0xc91400d00">

<path fill="none" stroke="rgb(229,229,229)" d="M708.91,-106.21C708.37,-115.8 710.58,-124 715.55,-124 718.34,-124 720.27,-121.4 721.32,-117.43" style=""/>
<polygon fill="rgb(229,229,229)" stroke="rgb(229,229,229)" points="724.79,-117.96 722.07,-107.72 717.81,-117.42 724.79,-117.96" style=""/>
<text text-anchor="middle" x="715.55" y="-128.2" font-family="Courier,monospace" font-size="14.00" style="">0-9</text>
</g>
<!-- N0xc91400eb0&#45;&gt;N0xc91400eb0 -->
<g id="edge58" class="edge" data-name="STATE_REST_IDENT-&gt;STATE_REST_IDENT" data-comment="N0xc91400eb0-&gt;N0xc91400eb0">

<path fill="none" stroke="rgb(229,229,229)" d="M704.01,-106.02C699.39,-123.72 703.24,-142 715.55,-142 725.27,-142 729.71,-130.62 728.89,-117.12" style=""/>
<polygon fill="rgb(229,229,229)" stroke="rgb(229,229,229)" points="732.38,-116.83 727.33,-107.51 725.47,-117.94 732.38,-116.83" style=""/>
<text text-anchor="middle" x="715.55" y="-146.2" font-family="Courier,monospace" font-size="14.00" style="">A-Z</text>
</g>
<!-- N0xc91400eb0&#45;&gt;N0xc91400eb0 -->
<g id="edge59" class="edge" data-name="STATE_REST_IDENT-&gt;STATE_REST_IDENT" data-comment="N0xc91400eb0-&gt;N0xc91400eb0">

<path fill="none" stroke="rgb(229,229,229)" d="M700.6,-106.17C690.31,-131.2 695.3,-160 715.55,-160 732.96,-160 739.08,-138.73 733.94,-116.87" style=""/>
<polygon fill="rgb(229,229,229)" stroke="rgb(229,229,229)" points="737.36,-116.07 730.97,-107.61 730.69,-118.21 737.36,-116.07" style=""/>
<text text-anchor="middle" x="715.55" y="-164.2" font-family="Courier,monospace" font-size="14.00" style="">_</text>
</g>
<!-- N0xc91400eb0&#45;&gt;N0xc91400eb0 -->
<g id="edge60" class="edge" data-name="STATE_REST_IDENT-&gt;STATE_REST_IDENT" data-comment="N0xc91400eb0-&gt;N0xc91400eb0">

<path fill="none" stroke="rgb(229,229,229)" d="M698.41,-105.71C681.15,-137.81 686.87,-178 715.55,-178 741.21,-178 748.49,-145.84 737.39,-116.08" style=""/>
<polygon fill="rgb(229,229,229)" stroke="rgb(229,229,229)" points="740.63,-114.76 733.32,-107.09 734.25,-117.65 740.63,-114.76" style=""/>
<text text-anchor="middle" x="715.55" y="-182.2" font-family="Courier,monospace" font-size="14.00" style="">a-z</text>
</g>
</g>
</svg>