<?xml version="1.0" encoding="UTF-8" standalone="no"?>
<!DOCTYPE svg PUBLIC "-//W3C//DTD SVG 1.1//EN"
 "http://www.w3.org/Graphics/SVG/1.1/DTD/svg11.dtd">
<!-- Generated by graphviz version 14.1.5 (20260411.2331)
 -->
<!-- Title: INITIAL Pages: 1 -->
<svg width="1012pt" height="1321pt"
 viewBox="0.00 0.00 1012.00 1321.00" xmlns="http://www.w3.org/2000/svg" xmlns:xlink="http://www.w3.org/1999/xlink">
<g id="graph0" class="graph" transform="scale(1 1) rotate(0) translate(4 1316.88)">
<title>INITIAL</title>
<polygon fill="white" stroke="none" points="-4,4 -4,-1316.88 1008.33,-1316.88 1008.33,4 -4,4"/>
<!-- init -->
<g id="node1" class="node">
<title>init</title>
<text xml:space="preserve" text-anchor="middle" x="50.33" y="-720.95" font-family="Courier,monospace" font-size="14.00">INITIAL</text>
</g>
<!-- STATE_INITIAL -->
<g id="node2" class="node">
<title>STATE_INITIAL</title>
<ellipse fill="none" stroke="black" cx="177.79" cy="-726" rx="40.13" ry="18"/>
<text xml:space="preserve" text-anchor="middle" x="177.79" y="-720.2" font-family="ArialNarrow" font-size="14.00">INITIAL</text>
</g>
<!-- init&#45;&gt;STATE_INITIAL -->
<g id="edge1" class="edge">
<title>init&#45;&gt;STATE_INITIAL</title>
<path fill="none" stroke="black" d="M100.91,-726C109.11,-726 117.61,-726 125.84,-726"/>
<polygon fill="black" stroke="black" points="125.71,-729.5 135.71,-726 125.71,-722.5 125.71,-729.5"/>
</g>
<!-- STATE_UNK -->
<g id="node3" class="node">
<title>STATE_UNK</title>
<ellipse fill="none" stroke="black" cx="399.68" cy="-1146" rx="45.98" ry="18"/>
<ellipse fill="none" stroke="black" cx="399.68" cy="-1146" rx="49.98" ry="22"/>
<text xml:space="preserve" text-anchor="middle" x="399.68" y="-1140.2" font-family="ArialNarrow" font-size="14.00">UNK [13]</text>
</g>
<!-- STATE_INITIAL&#45;&gt;STATE_UNK -->
<g id="edge2" class="edge">
<title>STATE_INITIAL&#45;&gt;STATE_UNK</title>
<path fill="none" stroke="black" d="M179.24,-744.43C181.71,-836.87 194.9,-1246.97 235.92,-1284 288.36,-1331.34 352.99,-1231.57 382.55,-1177.59"/>
<polygon fill="black" stroke="black" points="385.46,-1179.58 387.1,-1169.11 379.29,-1176.27 385.46,-1179.58"/>
<text xml:space="preserve" text-anchor="middle" x="264.8" y="-1299.58" font-family="Courier,monospace" font-size="14.00">\0&#45;\b</text>
</g>
<!-- STATE_INITIAL&#45;&gt;STATE_UNK -->
<g id="edge5" class="edge">
<title>STATE_INITIAL&#45;&gt;STATE_UNK</title>
<path fill="none" stroke="black" d="M179.39,-744.27C182.47,-832.3 197.85,-1209.89 235.92,-1244 280.58,-1284 343.86,-1217.8 376.82,-1176.04"/>
<polygon fill="black" stroke="black" points="379.5,-1178.3 382.83,-1168.24 373.95,-1174.03 379.5,-1178.3"/>
<text xml:space="preserve" text-anchor="middle" x="264.8" y="-1259.56" font-family="Courier,monospace" font-size="14.00">\v&#45;\x1f</text>
</g>
<!-- STATE_INITIAL&#45;&gt;STATE_UNK -->
<g id="edge9" class="edge">
<title>STATE_INITIAL&#45;&gt;STATE_UNK</title>
<path fill="none" stroke="black" d="M179.57,-744.24C183.31,-827.97 200.8,-1172.83 235.92,-1204 273.98,-1237.78 333.06,-1201.33 368.59,-1172.89"/>
<polygon fill="black" stroke="black" points="370.44,-1175.9 375.93,-1166.84 365.98,-1170.5 370.44,-1175.9"/>
<text xml:space="preserve" text-anchor="middle" x="264.8" y="-1220.75" font-family="Courier,monospace" font-size="14.00">#&#45;$</text>
</g>
<!-- STATE_INITIAL&#45;&gt;STATE_UNK -->
<g id="edge12" class="edge">
<title>STATE_INITIAL&#45;&gt;STATE_UNK</title>
<path fill="none" stroke="black" d="M179.78,-744.28C184.24,-823.67 203.76,-1135.76 235.92,-1164 268.3,-1192.42 319.37,-1180.89 355.67,-1166.74"/>
<polygon fill="black" stroke="black" points="356.63,-1170.13 364.55,-1163.09 353.97,-1163.66 356.63,-1170.13"/>
<text xml:space="preserve" text-anchor="middle" x="264.8" y="-1184.69" font-family="Courier,monospace" font-size="14.00">&#39;</text>
</g>
<!-- STATE_INITIAL&#45;&gt;STATE_UNK -->
<g id="edge14" class="edge">
<title>STATE_INITIAL&#45;&gt;STATE_UNK</title>
<path fill="none" stroke="black" d="M178.63,-744.19C178.4,-814.86 181.4,-1069.93 235.92,-1124 250.19,-1138.15 298.07,-1143.39 338.23,-1145.24"/>
<polygon fill="black" stroke="black" points="337.94,-1148.73 348.07,-1145.62 338.22,-1141.73 337.94,-1148.73"/>
<text xml:space="preserve" text-anchor="middle" x="264.8" y="-1144.52" font-family="Courier,monospace" font-size="14.00">.</text>
</g>
<!-- STATE_INITIAL&#45;&gt;STATE_UNK -->
<g id="edge22" class="edge">
<title>STATE_INITIAL&#45;&gt;STATE_UNK</title>
<path fill="none" stroke="black" d="M179.28,-744.31C181.39,-809.86 191.74,-1031.72 235.92,-1084 253.41,-1104.69 268.27,-1094.08 293.67,-1103.5 313,-1110.67 334.11,-1119.09 352.3,-1126.54"/>
<polygon fill="black" stroke="black" points="350.94,-1129.77 361.52,-1130.34 353.61,-1123.3 350.94,-1129.77"/>
<text xml:space="preserve" text-anchor="middle" x="264.8" y="-1106.7" font-family="Courier,monospace" font-size="14.00">?&#45;@</text>
</g>
<!-- STATE_INITIAL&#45;&gt;STATE_UNK -->
<g id="edge24" class="edge">
<title>STATE_INITIAL&#45;&gt;STATE_UNK</title>
<path fill="none" stroke="black" d="M179.69,-744.34C183.01,-805.07 196.55,-998.33 235.92,-1044 253.61,-1064.52 269.85,-1050.61 293.67,-1063.5 321.38,-1078.49 349.26,-1100.81 369.32,-1118.46"/>
<polygon fill="black" stroke="black" points="366.78,-1120.87 376.56,-1124.94 371.45,-1115.66 366.78,-1120.87"/>
<text xml:space="preserve" text-anchor="middle" x="264.8" y="-1066.7" font-family="Courier,monospace" font-size="14.00">[&#45;^</text>
</g>
<!-- STATE_INITIAL&#45;&gt;STATE_UNK -->
<g id="edge26" class="edge">
<title>STATE_INITIAL&#45;&gt;STATE_UNK</title>
<path fill="none" stroke="black" d="M180.21,-744.35C184.85,-799.9 201.33,-964.87 235.92,-1004 253.87,-1024.3 271.22,-1008.34 293.67,-1023.5 329.65,-1047.79 360.55,-1087.56 379.33,-1115.17"/>
<polygon fill="black" stroke="black" points="376.41,-1117.09 384.86,-1123.48 382.24,-1113.21 376.41,-1117.09"/>
<text xml:space="preserve" text-anchor="middle" x="264.8" y="-1026.7" font-family="Courier,monospace" font-size="14.00">`</text>
</g>
<!-- STATE_INITIAL&#45;&gt;STATE_UNK -->
<g id="edge31" class="edge">
<title>STATE_INITIAL&#45;&gt;STATE_UNK</title>
<path fill="none" stroke="black" d="M177.98,-744.31C177.07,-787.33 180.74,-896.04 235.92,-960 254.03,-980.98 272.33,-965.82 293.67,-983.5 336.81,-1019.23 368.3,-1077.36 385.02,-1113.55"/>
<polygon fill="black" stroke="black" points="381.81,-1114.96 389.11,-1122.64 388.2,-1112.09 381.81,-1114.96"/>
<text xml:space="preserve" text-anchor="middle" x="264.8" y="-986.7" font-family="Courier,monospace" font-size="14.00">~&#45;\xff</text>
</g>
<!-- STATE_WHITESPACE -->
<g id="node4" class="node">
<title>STATE_WHITESPACE</title>
<ellipse fill="none" stroke="black" cx="399.68" cy="-906" rx="81.08" ry="18"/>
<ellipse fill="none" stroke="black" cx="399.68" cy="-906" rx="85.08" ry="22"/>
<text xml:space="preserve" text-anchor="middle" x="399.68" y="-900.2" font-family="ArialNarrow" font-size="14.00">WHITESPACE [1]</text>
</g>
<!-- STATE_INITIAL&#45;&gt;STATE_WHITESPACE -->
<g id="edge3" class="edge">
<title>STATE_INITIAL&#45;&gt;STATE_WHITESPACE</title>
<path fill="none" stroke="black" d="M181.25,-744.15C187.7,-788.8 206.69,-902.01 235.92,-924 267.08,-947.44 311.57,-940.6 346.16,-929.19"/>
<polygon fill="black" stroke="black" points="347.33,-932.49 355.59,-925.86 345,-925.89 347.33,-932.49"/>
<text xml:space="preserve" text-anchor="middle" x="264.8" y="-942.87" font-family="Courier,monospace" font-size="14.00">\t</text>
</g>
<!-- STATE_INITIAL&#45;&gt;STATE_WHITESPACE -->
<g id="edge4" class="edge">
<title>STATE_INITIAL&#45;&gt;STATE_WHITESPACE</title>
<path fill="none" stroke="black" d="M179.56,-744.35C182.05,-777.91 192.46,-848.92 235.92,-884 247.09,-893.01 274.63,-898.34 303.94,-901.48"/>
<polygon fill="black" stroke="black" points="303.44,-904.95 313.73,-902.44 304.12,-897.98 303.44,-904.95"/>
<text xml:space="preserve" text-anchor="middle" x="264.8" y="-903.29" font-family="Courier,monospace" font-size="14.00">\n</text>
</g>
<!-- STATE_INITIAL&#45;&gt;STATE_WHITESPACE -->
<g id="edge6" class="edge">
<title>STATE_INITIAL&#45;&gt;STATE_WHITESPACE</title>
<path fill="none" stroke="black" d="M183.31,-744.07C190.45,-769.09 206.64,-814.22 235.92,-841 256.25,-859.59 268.07,-853.33 293.67,-863.5 309.42,-869.75 326.45,-876.61 342.13,-882.95"/>
<polygon fill="black" stroke="black" points="340.74,-886.17 351.33,-886.68 343.37,-879.68 340.74,-886.17"/>
<text xml:space="preserve" text-anchor="middle" x="264.8" y="-866.7" font-family="Courier,monospace" font-size="14.00">\x20</text>
</g>
<!-- STATE_OP_NOT -->
<g id="node5" class="node">
<title>STATE_OP_NOT</title>
<ellipse fill="none" stroke="black" cx="399.68" cy="-838" rx="59.63" ry="18"/>
<ellipse fill="none" stroke="black" cx="399.68" cy="-838" rx="63.63" ry="22"/>
<text xml:space="preserve" text-anchor="middle" x="399.68" y="-832.2" font-family="ArialNarrow" font-size="14.00">OP_NOT [9]</text>
</g>
<!-- STATE_INITIAL&#45;&gt;STATE_OP_NOT -->
<g id="edge7" class="edge">
<title>STATE_INITIAL&#45;&gt;STATE_OP_NOT</title>
<path fill="none" stroke="black" d="M188.7,-743.66C198.61,-759.7 215.31,-782.81 235.92,-796 263.06,-813.37 297.05,-823.57 326.95,-829.55"/>
<polygon fill="black" stroke="black" points="326.23,-832.98 336.7,-831.37 327.51,-826.09 326.23,-832.98"/>
<text xml:space="preserve" text-anchor="middle" x="264.8" y="-823.44" font-family="Courier,monospace" font-size="14.00">!</text>
</g>
<!-- STATE_STR_START -->
<g id="node6" class="node">
<title>STATE_STR_START</title>
<ellipse fill="none" stroke="black" cx="399.68" cy="-775" rx="78.64" ry="18"/>
<ellipse fill="none" stroke="black" cx="399.68" cy="-775" rx="82.64" ry="22"/>
<text xml:space="preserve" text-anchor="middle" x="399.68" y="-769.2" font-family="ArialNarrow" font-size="14.00">STR_START [13]</text>
</g>
<!-- STATE_INITIAL&#45;&gt;STATE_STR_START -->
<g id="edge8" class="edge">
<title>STATE_INITIAL&#45;&gt;STATE_STR_START</title>
<path fill="none" stroke="black" d="M197.54,-742.1C208.09,-750.19 221.94,-759.25 235.92,-764 257.93,-771.47 282.56,-775.28 305.86,-777.01"/>
<polygon fill="black" stroke="black" points="305.47,-780.49 315.66,-777.61 305.9,-773.51 305.47,-780.49"/>
<text xml:space="preserve" text-anchor="middle" x="264.8" y="-779" font-family="Courier,monospace" font-size="14.00">&quot;</text>
</g>
<!-- STATE_SINGLE_OP -->
<g id="node7" class="node">
<title>STATE_SINGLE_OP</title>
<ellipse fill="none" stroke="black" cx="399.68" cy="-663" rx="73.28" ry="18"/>
<ellipse fill="none" stroke="black" cx="399.68" cy="-663" rx="77.28" ry="22"/>
<text xml:space="preserve" text-anchor="middle" x="399.68" y="-657.2" font-family="ArialNarrow" font-size="14.00">SINGLE_OP [9]</text>
</g>
<!-- STATE_INITIAL&#45;&gt;STATE_SINGLE_OP -->
<g id="edge10" class="edge">
<title>STATE_INITIAL&#45;&gt;STATE_SINGLE_OP</title>
<path fill="none" stroke="black" d="M217.26,-730.11C239.91,-731.36 268.89,-730.91 293.67,-724 318.34,-717.12 343.24,-703.04 362.6,-690.13"/>
<polygon fill="black" stroke="black" points="364.41,-693.14 370.66,-684.59 360.44,-687.37 364.41,-693.14"/>
<text xml:space="preserve" text-anchor="middle" x="264.8" y="-733.86" font-family="Courier,monospace" font-size="14.00">%</text>
</g>
<!-- STATE_INITIAL&#45;&gt;STATE_SINGLE_OP -->
<g id="edge13" class="edge">
<title>STATE_INITIAL&#45;&gt;STATE_SINGLE_OP</title>
<path fill="none" stroke="black" d="M207.88,-713.69C216.79,-710.15 226.68,-706.45 235.92,-703.5 265.06,-694.18 297.69,-685.69 326.04,-678.92"/>
<polygon fill="black" stroke="black" points="326.69,-682.36 335.62,-676.66 325.08,-675.55 326.69,-682.36"/>
<text xml:space="preserve" text-anchor="middle" x="264.8" y="-706.7" font-family="Courier,monospace" font-size="14.00">(&#45;&#45;</text>
</g>
<!-- STATE_INITIAL&#45;&gt;STATE_SINGLE_OP -->
<g id="edge15" class="edge">
<title>STATE_INITIAL&#45;&gt;STATE_SINGLE_OP</title>
<path fill="none" stroke="black" d="M189.75,-708.57C199.8,-694.33 216.12,-675.19 235.92,-666.5 261.4,-655.32 291.35,-652.22 318.56,-652.64"/>
<polygon fill="black" stroke="black" points="318.41,-656.14 328.52,-652.97 318.65,-649.14 318.41,-656.14"/>
<text xml:space="preserve" text-anchor="middle" x="264.8" y="-669.7" font-family="Courier,monospace" font-size="14.00">/</text>
</g>
<!-- STATE_INITIAL&#45;&gt;STATE_SINGLE_OP -->
<g id="edge18" class="edge">
<title>STATE_INITIAL&#45;&gt;STATE_SINGLE_OP</title>
<path fill="none" stroke="black" d="M183.86,-707.96C191.22,-685.64 207.22,-648.6 235.92,-632.5 258.31,-619.94 268.26,-628.88 293.67,-632.5 308.58,-634.62 324.32,-638.35 338.95,-642.5"/>
<polygon fill="black" stroke="black" points="337.86,-645.82 348.45,-645.3 339.84,-639.11 337.86,-645.82"/>
<text xml:space="preserve" text-anchor="middle" x="264.8" y="-635.7" font-family="Courier,monospace" font-size="14.00">;</text>
</g>
<!-- STATE_INITIAL&#45;&gt;STATE_SINGLE_OP -->
<g id="edge28" class="edge">
<title>STATE_INITIAL&#45;&gt;STATE_SINGLE_OP</title>
<path fill="none" stroke="black" d="M181.34,-707.72C186.31,-679.99 200.12,-628.15 235.92,-605.5 257.61,-591.78 270.77,-593.91 293.67,-605.5 305.73,-611.6 300.92,-621.82 311.67,-630 318.22,-634.97 325.6,-639.27 333.22,-642.97"/>
<polygon fill="black" stroke="black" points="331.77,-646.16 342.33,-647.03 334.62,-639.76 331.77,-646.16"/>
<text xml:space="preserve" text-anchor="middle" x="264.8" y="-608.7" font-family="Courier,monospace" font-size="14.00">{</text>
</g>
<!-- STATE_INITIAL&#45;&gt;STATE_SINGLE_OP -->
<g id="edge30" class="edge">
<title>STATE_INITIAL&#45;&gt;STATE_SINGLE_OP</title>
<path fill="none" stroke="black" d="M179.47,-707.68C181.81,-674.67 191.99,-605.82 235.92,-575.5 257.05,-560.92 272.87,-560.46 293.67,-575.5 314.35,-590.44 294.03,-611.57 311.67,-630 316.85,-635.41 323.01,-639.94 329.62,-643.74"/>
<polygon fill="black" stroke="black" points="327.72,-646.7 338.22,-648.1 330.89,-640.46 327.72,-646.7"/>
<text xml:space="preserve" text-anchor="middle" x="264.8" y="-578.7" font-family="Courier,monospace" font-size="14.00">}</text>
</g>
<!-- STATE_AMPERSAND -->
<g id="node8" class="node">
<title>STATE_AMPERSAND</title>
<ellipse fill="none" stroke="black" cx="399.68" cy="-599" rx="78.64" ry="18"/>
<ellipse fill="none" stroke="black" cx="399.68" cy="-599" rx="82.64" ry="22"/>
<text xml:space="preserve" text-anchor="middle" x="399.68" y="-593.2" font-family="ArialNarrow" font-size="14.00">AMPERSAND [9]</text>
</g>
<!-- STATE_INITIAL&#45;&gt;STATE_AMPERSAND -->
<g id="edge11" class="edge">
<title>STATE_INITIAL&#45;&gt;STATE_AMPERSAND</title>
<path fill="none" stroke="black" d="M178.1,-707.56C177.8,-669.42 183.22,-582.23 235.92,-543.5 256.61,-528.3 270.16,-533.21 293.67,-543.5 304.48,-548.23 302,-556.25 311.67,-563 319.2,-568.25 327.62,-572.93 336.17,-577.04"/>
<polygon fill="black" stroke="black" points="334.68,-580.2 345.23,-581.14 337.56,-573.83 334.68,-580.2"/>
<text xml:space="preserve" text-anchor="middle" x="264.8" y="-546.7" font-family="Courier,monospace" font-size="14.00">&amp;</text>
</g>
<!-- STATE_INT_FIRST -->
<g id="node9" class="node">
<title>STATE_INT_FIRST</title>
<ellipse fill="none" stroke="black" cx="399.68" cy="-532" rx="71.82" ry="18"/>
<ellipse fill="none" stroke="black" cx="399.68" cy="-532" rx="75.82" ry="22"/>
<text xml:space="preserve" text-anchor="middle" x="399.68" y="-526.2" font-family="ArialNarrow" font-size="14.00">INT_FIRST [10]</text>
</g>
<!-- STATE_INITIAL&#45;&gt;STATE_INT_FIRST -->
<g id="edge16" class="edge">
<title>STATE_INITIAL&#45;&gt;STATE_INT_FIRST</title>
<path fill="none" stroke="black" d="M180.9,-707.59C186.73,-660.45 204.7,-537.44 235.92,-513.5 250.76,-502.12 293.31,-507.32 331.18,-515.06"/>
<polygon fill="black" stroke="black" points="330.24,-518.44 340.75,-517.1 331.7,-511.59 330.24,-518.44"/>
<text xml:space="preserve" text-anchor="middle" x="264.8" y="-516.7" font-family="Courier,monospace" font-size="14.00">0&#45;9</text>
</g>
<!-- STATE_COLON -->
<g id="node10" class="node">
<title>STATE_COLON</title>
<ellipse fill="none" stroke="black" cx="399.68" cy="-470" rx="59.63" ry="18"/>
<ellipse fill="none" stroke="black" cx="399.68" cy="-470" rx="63.63" ry="22"/>
<text xml:space="preserve" text-anchor="middle" x="399.68" y="-464.2" font-family="ArialNarrow" font-size="14.00">COLON [13]</text>
</g>
<!-- STATE_INITIAL&#45;&gt;STATE_COLON -->
<g id="edge17" class="edge">
<title>STATE_INITIAL&#45;&gt;STATE_COLON</title>
<path fill="none" stroke="black" d="M180.46,-707.72C185.5,-656.93 202.31,-515.92 235.92,-486.5 261.35,-464.25 298.3,-459.12 330.56,-460"/>
<polygon fill="black" stroke="black" points="330.08,-463.48 340.24,-460.47 330.42,-456.49 330.08,-463.48"/>
<text xml:space="preserve" text-anchor="middle" x="264.8" y="-489.7" font-family="Courier,monospace" font-size="14.00">:</text>
</g>
<!-- STATE_OP_LT -->
<g id="node11" class="node">
<title>STATE_OP_LT</title>
<ellipse fill="none" stroke="black" cx="399.68" cy="-408" rx="50.86" ry="18"/>
<ellipse fill="none" stroke="black" cx="399.68" cy="-408" rx="54.86" ry="22"/>
<text xml:space="preserve" text-anchor="middle" x="399.68" y="-402.2" font-family="ArialNarrow" font-size="14.00">OP_LT [9]</text>
</g>
<!-- STATE_INITIAL&#45;&gt;STATE_OP_LT -->
<g id="edge19" class="edge">
<title>STATE_INITIAL&#45;&gt;STATE_OP_LT</title>
<path fill="none" stroke="black" d="M179.88,-707.84C183.66,-651.23 198.08,-479.53 235.92,-441.5 261.25,-416.06 300.4,-407.43 333.97,-405.29"/>
<polygon fill="black" stroke="black" points="333.76,-408.8 343.59,-404.86 333.45,-401.81 333.76,-408.8"/>
<text xml:space="preserve" text-anchor="middle" x="264.8" y="-444.7" font-family="Courier,monospace" font-size="14.00">&lt;</text>
</g>
<!-- STATE_OP_ASSIGN -->
<g id="node12" class="node">
<title>STATE_OP_ASSIGN</title>
<ellipse fill="none" stroke="black" cx="399.68" cy="-346" rx="74.26" ry="18"/>
<ellipse fill="none" stroke="black" cx="399.68" cy="-346" rx="78.26" ry="22"/>
<text xml:space="preserve" text-anchor="middle" x="399.68" y="-340.2" font-family="ArialNarrow" font-size="14.00">OP_ASSIGN [9]</text>
</g>
<!-- STATE_INITIAL&#45;&gt;STATE_OP_ASSIGN -->
<g id="edge20" class="edge">
<title>STATE_INITIAL&#45;&gt;STATE_OP_ASSIGN</title>
<path fill="none" stroke="black" d="M179.4,-707.95C181.88,-645.36 193.22,-438.87 235.92,-391.5 255.18,-370.15 283.54,-358.47 311.21,-352.2"/>
<polygon fill="black" stroke="black" points="311.58,-355.69 320.69,-350.28 310.19,-348.83 311.58,-355.69"/>
<text xml:space="preserve" text-anchor="middle" x="264.8" y="-394.7" font-family="Courier,monospace" font-size="14.00">=</text>
</g>
<!-- STATE_OP_GT -->
<g id="node13" class="node">
<title>STATE_OP_GT</title>
<ellipse fill="none" stroke="black" cx="399.68" cy="-284" rx="53.3" ry="18"/>
<ellipse fill="none" stroke="black" cx="399.68" cy="-284" rx="57.3" ry="22"/>
<text xml:space="preserve" text-anchor="middle" x="399.68" y="-278.2" font-family="ArialNarrow" font-size="14.00">OP_GT [9]</text>
</g>
<!-- STATE_INITIAL&#45;&gt;STATE_OP_GT -->
<g id="edge21" class="edge">
<title>STATE_INITIAL&#45;&gt;STATE_OP_GT</title>
<path fill="none" stroke="black" d="M179,-707.52C180.14,-638.06 187.59,-393.63 235.92,-336.5 259.53,-308.6 298.06,-295.39 331.71,-289.2"/>
<polygon fill="black" stroke="black" points="332.11,-292.68 341.41,-287.6 330.97,-285.77 332.11,-292.68"/>
<text xml:space="preserve" text-anchor="middle" x="264.8" y="-339.7" font-family="Courier,monospace" font-size="14.00">&gt;</text>
</g>
<!-- STATE_IDENT_FIRST -->
<g id="node14" class="node">
<title>STATE_IDENT_FIRST</title>
<ellipse fill="none" stroke="black" cx="399.68" cy="-186" rx="84.01" ry="18"/>
<ellipse fill="none" stroke="black" cx="399.68" cy="-186" rx="88.01" ry="22"/>
<text xml:space="preserve" text-anchor="middle" x="399.68" y="-180.2" font-family="ArialNarrow" font-size="14.00">IDENT_FIRST [12]</text>
</g>
<!-- STATE_INITIAL&#45;&gt;STATE_IDENT_FIRST -->
<g id="edge23" class="edge">
<title>STATE_INITIAL&#45;&gt;STATE_IDENT_FIRST</title>
<path fill="none" stroke="black" d="M179.01,-707.53C180.22,-632.53 187.95,-351.42 235.92,-279.5 239.62,-273.96 304.98,-237.36 351.74,-211.63"/>
<polygon fill="black" stroke="black" points="353.29,-214.77 360.37,-206.89 349.92,-208.63 353.29,-214.77"/>
<text xml:space="preserve" text-anchor="middle" x="264.8" y="-282.7" font-family="Courier,monospace" font-size="14.00">A&#45;Z</text>
</g>
<!-- STATE_INITIAL&#45;&gt;STATE_IDENT_FIRST -->
<g id="edge25" class="edge">
<title>STATE_INITIAL&#45;&gt;STATE_IDENT_FIRST</title>
<path fill="none" stroke="black" d="M179.65,-707.63C183.82,-621.62 203.16,-261.4 235.92,-224.5 241.8,-217.88 279.02,-208.83 316.38,-201.17"/>
<polygon fill="black" stroke="black" points="316.82,-204.65 325.93,-199.24 315.44,-197.79 316.82,-204.65"/>
<text xml:space="preserve" text-anchor="middle" x="264.8" y="-227.7" font-family="Courier,monospace" font-size="14.00">_</text>
</g>
<!-- STATE_INITIAL&#45;&gt;STATE_IDENT_FIRST -->
<g id="edge27" class="edge">
<title>STATE_INITIAL&#45;&gt;STATE_IDENT_FIRST</title>
<path fill="none" stroke="black" d="M179.31,-707.58C182.07,-617.06 196.33,-222.23 235.92,-186.5 261.07,-163.81 298.35,-162.26 330.89,-167.02"/>
<polygon fill="black" stroke="black" points="330.23,-170.46 340.68,-168.69 331.41,-163.56 330.23,-170.46"/>
<text xml:space="preserve" text-anchor="middle" x="264.8" y="-189.7" font-family="Courier,monospace" font-size="14.00">a&#45;z</text>
</g>
<!-- STATE_PIPE -->
<g id="node15" class="node">
<title>STATE_PIPE</title>
<ellipse fill="none" stroke="black" cx="399.68" cy="-73" rx="47.45" ry="18"/>
<ellipse fill="none" stroke="black" cx="399.68" cy="-73" rx="51.45" ry="22"/>
<text xml:space="preserve" text-anchor="middle" x="399.68" y="-67.2" font-family="ArialNarrow" font-size="14.00">PIPE [13]</text>
</g>
<!-- STATE_INITIAL&#45;&gt;STATE_PIPE -->
<g id="edge29" class="edge">
<title>STATE_INITIAL&#45;&gt;STATE_PIPE</title>
<path fill="none" stroke="black" d="M179.5,-707.72C183.26,-614.13 202.05,-191.21 235.92,-144.5 260.31,-110.88 304.03,-92.84 340.02,-83.3"/>
<polygon fill="black" stroke="black" points="340.58,-86.77 349.45,-80.97 338.9,-79.98 340.58,-86.77"/>
<text xml:space="preserve" text-anchor="middle" x="264.8" y="-147.7" font-family="Courier,monospace" font-size="14.00">|</text>
</g>
<!-- STATE_OP_NEQ -->
<g id="node18" class="node">
<title>STATE_OP_NEQ</title>
<ellipse fill="none" stroke="black" cx="669.48" cy="-959" rx="60.12" ry="18"/>
<ellipse fill="none" stroke="black" cx="669.48" cy="-959" rx="64.12" ry="22"/>
<text xml:space="preserve" text-anchor="middle" x="669.48" y="-953.2" font-family="ArialNarrow" font-size="14.00">OP_NEQ [4]</text>
</g>
<!-- STATE_OP_NOT&#45;&gt;STATE_OP_NEQ -->
<g id="edge34" class="edge">
<title>STATE_OP_NOT&#45;&gt;STATE_OP_NEQ</title>
<path fill="none" stroke="black" d="M450.18,-851.58C463.61,-857.13 477.29,-864.73 487.68,-875 501.84,-888.99 490.56,-903.06 505.68,-916 530.41,-937.16 564.42,-948.04 594.96,-953.59"/>
<polygon fill="black" stroke="black" points="594.1,-957 604.54,-955.16 595.23,-950.09 594.1,-957"/>
<text xml:space="preserve" text-anchor="middle" x="530.43" y="-945.67" font-family="Courier,monospace" font-size="14.00">=</text>
</g>
<!-- STATE_STR_REST -->
<g id="node24" class="node">
<title>STATE_STR_REST</title>
<ellipse fill="none" stroke="black" cx="669.48" cy="-744" rx="56.22" ry="18"/>
<text xml:space="preserve" text-anchor="middle" x="669.48" y="-738.2" font-family="ArialNarrow" font-size="14.00">STR_REST</text>
</g>
<!-- STATE_STR_START&#45;&gt;STATE_STR_REST -->
<g id="edge40" class="edge">
<title>STATE_STR_START&#45;&gt;STATE_STR_REST</title>
<path fill="none" stroke="black" d="M460.87,-790.22C489.61,-795.3 524.37,-798.26 555.18,-792 581.15,-786.73 608.55,-775.29 629.9,-764.91"/>
<polygon fill="black" stroke="black" points="631.44,-768.05 638.81,-760.45 628.31,-761.79 631.44,-768.05"/>
<text xml:space="preserve" text-anchor="middle" x="530.43" y="-798.74" font-family="Courier,monospace" font-size="14.00">\0&#45;!</text>
</g>
<!-- STATE_STR_START&#45;&gt;STATE_STR_REST -->
<g id="edge42" class="edge">
<title>STATE_STR_START&#45;&gt;STATE_STR_REST</title>
<path fill="none" stroke="black" d="M475.99,-766.28C516.68,-761.57 566.36,-755.82 605.06,-751.34"/>
<polygon fill="black" stroke="black" points="605.15,-754.85 614.68,-750.23 604.34,-747.9 605.15,-754.85"/>
<text xml:space="preserve" text-anchor="middle" x="530.43" y="-765.48" font-family="Courier,monospace" font-size="14.00">#&#45;[</text>
</g>
<!-- STATE_STR_START&#45;&gt;STATE_STR_REST -->
<g id="edge44" class="edge">
<title>STATE_STR_START&#45;&gt;STATE_STR_REST</title>
<path fill="none" stroke="black" d="M443.46,-755.97C462.16,-748.64 484.61,-741.15 505.68,-737.5 538.68,-731.79 575.96,-732.75 606.52,-735.43"/>
<polygon fill="black" stroke="black" points="606.08,-738.9 616.37,-736.39 606.76,-731.94 606.08,-738.9"/>
<text xml:space="preserve" text-anchor="middle" x="530.43" y="-740.7" font-family="Courier,monospace" font-size="14.00">]&#45;\xff</text>
</g>
<!-- STATE_STR_END -->
<g id="node25" class="node">
<title>STATE_STR_END</title>
<ellipse fill="none" stroke="black" cx="931.92" cy="-879" rx="68.41" ry="18"/>
<ellipse fill="none" stroke="black" cx="931.92" cy="-879" rx="72.41" ry="22"/>
<text xml:space="preserve" text-anchor="middle" x="931.92" y="-873.2" font-family="ArialNarrow" font-size="14.00">STR_END [11]</text>
</g>
<!-- STATE_STR_START&#45;&gt;STATE_STR_END -->
<g id="edge41" class="edge">
<title>STATE_STR_START&#45;&gt;STATE_STR_END</title>
<path fill="none" stroke="black" d="M454.34,-791.67C465.65,-796.03 477.3,-801.16 487.68,-807 530.01,-830.79 527.43,-858.74 573.18,-875 667.12,-908.39 783.9,-901.48 857.94,-891.68"/>
<polygon fill="black" stroke="black" points="858.07,-895.2 867.5,-890.36 857.12,-888.26 858.07,-895.2"/>
<text xml:space="preserve" text-anchor="middle" x="669.48" y="-902.95" font-family="Courier,monospace" font-size="14.00">&quot;</text>
</g>
<!-- STATE_STR_ESCAPE -->
<g id="node26" class="node">
<title>STATE_STR_ESCAPE</title>
<ellipse fill="none" stroke="black" cx="931.92" cy="-743" rx="68.41" ry="18"/>
<text xml:space="preserve" text-anchor="middle" x="931.92" y="-737.2" font-family="ArialNarrow" font-size="14.00">STR_ESCAPE</text>
</g>
<!-- STATE_STR_START&#45;&gt;STATE_STR_ESCAPE -->
<g id="edge43" class="edge">
<title>STATE_STR_START&#45;&gt;STATE_STR_ESCAPE</title>
<path fill="none" stroke="black" d="M435.6,-754.75C469.48,-736.38 522.98,-710.66 573.18,-700.5 690.29,-676.79 725.71,-687.59 841.52,-717 852.45,-719.78 864.06,-722.97 875.16,-726.15"/>
<polygon fill="black" stroke="black" points="874.03,-729.46 884.61,-728.88 875.98,-722.74 874.03,-729.46"/>
<text xml:space="preserve" text-anchor="middle" x="669.48" y="-703.7" font-family="Courier,monospace" font-size="14.00">\</text>
</g>
<!-- STATE_OP_AND -->
<g id="node22" class="node">
<title>STATE_OP_AND</title>
<ellipse fill="none" stroke="black" cx="669.48" cy="-629" rx="59.14" ry="18"/>
<ellipse fill="none" stroke="black" cx="669.48" cy="-629" rx="63.14" ry="22"/>
<text xml:space="preserve" text-anchor="middle" x="669.48" y="-623.2" font-family="ArialNarrow" font-size="14.00">OP_AND [8]</text>
</g>
<!-- STATE_AMPERSAND&#45;&gt;STATE_OP_AND -->
<g id="edge38" class="edge">
<title>STATE_AMPERSAND&#45;&gt;STATE_OP_AND</title>
<path fill="none" stroke="black" d="M476.34,-607.48C514.47,-611.75 560.42,-616.89 597.82,-621.08"/>
<polygon fill="black" stroke="black" points="597.3,-624.55 607.63,-622.18 598.08,-617.59 597.3,-624.55"/>
<text xml:space="preserve" text-anchor="middle" x="530.43" y="-619" font-family="Courier,monospace" font-size="14.00">&amp;</text>
</g>
<!-- STATE_INT_REST -->
<g id="node23" class="node">
<title>STATE_INT_REST</title>
<ellipse fill="none" stroke="black" cx="669.48" cy="-532" rx="69.87" ry="18"/>
<ellipse fill="none" stroke="black" cx="669.48" cy="-532" rx="73.87" ry="22"/>
<text xml:space="preserve" text-anchor="middle" x="669.48" y="-526.2" font-family="ArialNarrow" font-size="14.00">INT_REST [10]</text>
</g>
<!-- STATE_INT_FIRST&#45;&gt;STATE_INT_REST -->
<g id="edge39" class="edge">
<title>STATE_INT_FIRST&#45;&gt;STATE_INT_REST</title>
<path fill="none" stroke="black" d="M475.99,-532C509.48,-532 549.07,-532 583.61,-532"/>
<polygon fill="black" stroke="black" points="583.6,-535.5 593.6,-532 583.6,-528.5 583.6,-535.5"/>
<text xml:space="preserve" text-anchor="middle" x="530.43" y="-535.2" font-family="Courier,monospace" font-size="14.00">0&#45;9</text>
</g>
<!-- STATE_ASSIGN_SHORT -->
<g id="node16" class="node">
<title>STATE_ASSIGN_SHORT</title>
<ellipse fill="none" stroke="black" cx="669.48" cy="-470" rx="92.29" ry="18"/>
<ellipse fill="none" stroke="black" cx="669.48" cy="-470" rx="96.29" ry="22"/>
<text xml:space="preserve" text-anchor="middle" x="669.48" y="-464.2" font-family="ArialNarrow" font-size="14.00">ASSIGN_SHORT [2]</text>
</g>
<!-- STATE_COLON&#45;&gt;STATE_ASSIGN_SHORT -->
<g id="edge32" class="edge">
<title>STATE_COLON&#45;&gt;STATE_ASSIGN_SHORT</title>
<path fill="none" stroke="black" d="M463.8,-470C492.98,-470 528.44,-470 561.6,-470"/>
<polygon fill="black" stroke="black" points="561.23,-473.5 571.23,-470 561.23,-466.5 561.23,-473.5"/>
<text xml:space="preserve" text-anchor="middle" x="530.43" y="-473.2" font-family="Courier,monospace" font-size="14.00">=</text>
</g>
<!-- STATE_OP_LEQ -->
<g id="node19" class="node">
<title>STATE_OP_LEQ</title>
<ellipse fill="none" stroke="black" cx="669.48" cy="-408" rx="58.66" ry="18"/>
<ellipse fill="none" stroke="black" cx="669.48" cy="-408" rx="62.66" ry="22"/>
<text xml:space="preserve" text-anchor="middle" x="669.48" y="-402.2" font-family="ArialNarrow" font-size="14.00">OP_LEQ [5]</text>
</g>
<!-- STATE_OP_LT&#45;&gt;STATE_OP_LEQ -->
<g id="edge35" class="edge">
<title>STATE_OP_LT&#45;&gt;STATE_OP_LEQ</title>
<path fill="none" stroke="black" d="M454.87,-408C495.22,-408 550.76,-408 595.09,-408"/>
<polygon fill="black" stroke="black" points="594.88,-411.5 604.88,-408 594.88,-404.5 594.88,-411.5"/>
<text xml:space="preserve" text-anchor="middle" x="530.43" y="-411.2" font-family="Courier,monospace" font-size="14.00">=</text>
</g>
<!-- STATE_OP_EQ -->
<g id="node17" class="node">
<title>STATE_OP_EQ</title>
<ellipse fill="none" stroke="black" cx="669.48" cy="-346" rx="53.78" ry="18"/>
<ellipse fill="none" stroke="black" cx="669.48" cy="-346" rx="57.78" ry="22"/>
<text xml:space="preserve" text-anchor="middle" x="669.48" y="-340.2" font-family="ArialNarrow" font-size="14.00">OP_EQ [3]</text>
</g>
<!-- STATE_OP_ASSIGN&#45;&gt;STATE_OP_EQ -->
<g id="edge33" class="edge">
<title>STATE_OP_ASSIGN&#45;&gt;STATE_OP_EQ</title>
<path fill="none" stroke="black" d="M478.14,-346C516.77,-346 563.09,-346 600.35,-346"/>
<polygon fill="black" stroke="black" points="600.1,-349.5 610.1,-346 600.1,-342.5 600.1,-349.5"/>
<text xml:space="preserve" text-anchor="middle" x="530.43" y="-349.2" font-family="Courier,monospace" font-size="14.00">=</text>
</g>
<!-- STATE_OP_GEQ -->
<g id="node20" class="node">
<title>STATE_OP_GEQ</title>
<ellipse fill="none" stroke="black" cx="669.48" cy="-284" rx="61.09" ry="18"/>
<ellipse fill="none" stroke="black" cx="669.48" cy="-284" rx="65.09" ry="22"/>
<text xml:space="preserve" text-anchor="middle" x="669.48" y="-278.2" font-family="ArialNarrow" font-size="14.00">OP_GEQ [6]</text>
</g>
<!-- STATE_OP_GT&#45;&gt;STATE_OP_GEQ -->
<g id="edge36" class="edge">
<title>STATE_OP_GT&#45;&gt;STATE_OP_GEQ</title>
<path fill="none" stroke="black" d="M457.47,-284C496.93,-284 549.95,-284 592.97,-284"/>
<polygon fill="black" stroke="black" points="592.73,-287.5 602.73,-284 592.73,-280.5 592.73,-287.5"/>
<text xml:space="preserve" text-anchor="middle" x="530.43" y="-287.2" font-family="Courier,monospace" font-size="14.00">=</text>
</g>
<!-- STATE_IDENT_REST -->
<g id="node27" class="node">
<title>STATE_IDENT_REST</title>
<ellipse fill="none" stroke="black" cx="669.48" cy="-84" rx="82.06" ry="18"/>
<ellipse fill="none" stroke="black" cx="669.48" cy="-84" rx="86.06" ry="22"/>
<text xml:space="preserve" text-anchor="middle" x="669.48" y="-78.2" font-family="ArialNarrow" font-size="14.00">IDENT_REST [12]</text>
</g>
<!-- STATE_IDENT_FIRST&#45;&gt;STATE_IDENT_REST -->
<g id="edge45" class="edge">
<title>STATE_IDENT_FIRST&#45;&gt;STATE_IDENT_REST</title>
<path fill="none" stroke="black" d="M487.7,-187.49C510.27,-185.53 534.14,-181.28 555.18,-173 588.26,-159.98 619.53,-133.98 640.81,-113.43"/>
<polygon fill="black" stroke="black" points="643.02,-116.17 647.66,-106.65 638.09,-111.2 643.02,-116.17"/>
<text xml:space="preserve" text-anchor="middle" x="530.43" y="-188.58" font-family="Courier,monospace" font-size="14.00">0&#45;9</text>
</g>
<!-- STATE_IDENT_FIRST&#45;&gt;STATE_IDENT_REST -->
<g id="edge46" class="edge">
<title>STATE_IDENT_FIRST&#45;&gt;STATE_IDENT_REST</title>
<path fill="none" stroke="black" d="M455.04,-168.5C484.82,-158.63 522.26,-145.75 555.18,-133 574.99,-125.33 596.44,-116.26 615.29,-108.02"/>
<polygon fill="black" stroke="black" points="616.63,-111.25 624.38,-104.02 613.81,-104.84 616.63,-111.25"/>
<text xml:space="preserve" text-anchor="middle" x="530.43" y="-153.29" font-family="Courier,monospace" font-size="14.00">A&#45;Z</text>
</g>
<!-- STATE_IDENT_FIRST&#45;&gt;STATE_IDENT_REST -->
<g id="edge47" class="edge">
<title>STATE_IDENT_FIRST&#45;&gt;STATE_IDENT_REST</title>
<path fill="none" stroke="black" d="M424.73,-164.51C444.91,-147.68 475.25,-125.08 505.68,-112.5 527.77,-103.37 552.72,-97.16 576.34,-92.94"/>
<polygon fill="black" stroke="black" points="576.66,-96.44 585.95,-91.34 575.5,-89.53 576.66,-96.44"/>
<text xml:space="preserve" text-anchor="middle" x="530.43" y="-115.7" font-family="Courier,monospace" font-size="14.00">_</text>
</g>
<!-- STATE_IDENT_FIRST&#45;&gt;STATE_IDENT_REST -->
<g id="edge48" class="edge">
<title>STATE_IDENT_FIRST&#45;&gt;STATE_IDENT_REST</title>
<path fill="none" stroke="black" d="M426.08,-164.71C444.23,-148.89 468.7,-126.27 487.68,-104 496.92,-93.16 493.1,-84.16 505.68,-77.5 533.61,-62.71 568.17,-62.07 598.25,-66.04"/>
<polygon fill="black" stroke="black" points="597.63,-69.49 608.04,-67.54 598.69,-62.57 597.63,-69.49"/>
<text xml:space="preserve" text-anchor="middle" x="530.43" y="-80.7" font-family="Courier,monospace" font-size="14.00">a&#45;z</text>
</g>
<!-- STATE_OP_OR -->
<g id="node21" class="node">
<title>STATE_OP_OR</title>
<ellipse fill="none" stroke="black" cx="669.48" cy="-22" rx="54.27" ry="18"/>
<ellipse fill="none" stroke="black" cx="669.48" cy="-22" rx="58.27" ry="22"/>
<text xml:space="preserve" text-anchor="middle" x="669.48" y="-16.2" font-family="ArialNarrow" font-size="14.00">OP_OR [7]</text>
</g>
<!-- STATE_PIPE&#45;&gt;STATE_OP_OR -->
<g id="edge37" class="edge">
<title>STATE_PIPE&#45;&gt;STATE_OP_OR</title>
<path fill="none" stroke="black" d="M437.46,-57.72C457.33,-50.11 482.47,-41.49 505.68,-36.5 536.17,-29.95 570.49,-26.35 599.73,-24.38"/>
<polygon fill="black" stroke="black" points="599.81,-27.88 609.57,-23.77 599.37,-20.89 599.81,-27.88"/>
<text xml:space="preserve" text-anchor="middle" x="530.43" y="-39.7" font-family="Courier,monospace" font-size="14.00">|</text>
</g>
<!-- STATE_INT_REST&#45;&gt;STATE_INT_REST -->
<g id="edge49" class="edge">
<title>STATE_INT_REST&#45;&gt;STATE_INT_REST</title>
<path fill="none" stroke="black" d="M644.04,-552.99C640.9,-563.09 649.38,-572 669.48,-572 681.41,-572 689.24,-568.86 692.98,-564.19"/>
<polygon fill="black" stroke="black" points="696.41,-564.93 694.65,-554.48 689.51,-563.74 696.41,-564.93"/>
<text xml:space="preserve" text-anchor="middle" x="669.48" y="-575.2" font-family="Courier,monospace" font-size="14.00">0&#45;9</text>
</g>
<!-- STATE_STR_REST&#45;&gt;STATE_STR_REST -->
<g id="edge50" class="edge">
<title>STATE_STR_REST&#45;&gt;STATE_STR_REST</title>
<path fill="none" stroke="black" d="M661.09,-762.15C659.8,-771.54 662.6,-780 669.48,-780 673.35,-780 675.92,-777.32 677.21,-773.31"/>
<polygon fill="black" stroke="black" points="680.68,-773.85 677.77,-763.66 673.69,-773.44 680.68,-773.85"/>
<text xml:space="preserve" text-anchor="middle" x="669.48" y="-783.2" font-family="Courier,monospace" font-size="14.00">\0&#45;!</text>
</g>
<!-- STATE_STR_REST&#45;&gt;STATE_STR_REST -->
<g id="edge52" class="edge">
<title>STATE_STR_REST&#45;&gt;STATE_STR_REST</title>
<path fill="none" stroke="black" d="M655.66,-761.7C648.03,-779 652.64,-798 669.48,-798 682.76,-798 688.43,-786.17 686.48,-772.68"/>
<polygon fill="black" stroke="black" points="689.86,-771.78 683.71,-763.15 683.14,-773.73 689.86,-771.78"/>
<text xml:space="preserve" text-anchor="middle" x="669.48" y="-801.2" font-family="Courier,monospace" font-size="14.00">#&#45;[</text>
</g>
<!-- STATE_STR_REST&#45;&gt;STATE_STR_REST -->
<g id="edge54" class="edge">
<title>STATE_STR_REST&#45;&gt;STATE_STR_REST</title>
<path fill="none" stroke="black" d="M652.36,-761.35C636.2,-785.82 641.91,-816 669.48,-816 693.38,-816 700.84,-793.3 691.87,-771.32"/>
<polygon fill="black" stroke="black" points="695.08,-769.89 687.3,-762.69 688.89,-773.17 695.08,-769.89"/>
<text xml:space="preserve" text-anchor="middle" x="669.48" y="-819.2" font-family="Courier,monospace" font-size="14.00">]&#45;\xff</text>
</g>
<!-- STATE_STR_REST&#45;&gt;STATE_STR_END -->
<g id="edge51" class="edge">
<title>STATE_STR_REST&#45;&gt;STATE_STR_END</title>
<path fill="none" stroke="black" d="M699.28,-759.41C722.14,-771.61 754.93,-789.02 783.77,-804 816.85,-821.19 854.29,-840.27 883.13,-854.88"/>
<polygon fill="black" stroke="black" points="881.49,-857.97 891.99,-859.37 884.65,-851.73 881.49,-857.97"/>
<text xml:space="preserve" text-anchor="middle" x="812.64" y="-836.29" font-family="Courier,monospace" font-size="14.00">&quot;</text>
</g>
<!-- STATE_STR_REST&#45;&gt;STATE_STR_ESCAPE -->
<g id="edge53" class="edge">
<title>STATE_STR_REST&#45;&gt;STATE_STR_ESCAPE</title>
<path fill="none" stroke="black" d="M702.58,-759.01C736.92,-773.18 792.99,-790.88 841.52,-781 858.3,-777.58 875.84,-770.89 890.89,-764.07"/>
<polygon fill="black" stroke="black" points="891.96,-767.44 899.51,-760.01 888.97,-761.11 891.96,-767.44"/>
<text xml:space="preserve" text-anchor="middle" x="812.64" y="-787.06" font-family="Courier,monospace" font-size="14.00">\</text>
</g>
<!-- STATE_STR_ESCAPE&#45;&gt;STATE_STR_REST -->
<g id="edge55" class="edge">
<title>STATE_STR_ESCAPE&#45;&gt;STATE_STR_REST</title>
<path fill="none" stroke="black" d="M863.43,-743.26C824.57,-743.41 775.92,-743.6 737.19,-743.74"/>
<polygon fill="black" stroke="black" points="737.53,-740.24 727.54,-743.78 737.56,-747.24 737.53,-740.24"/>
<text xml:space="preserve" text-anchor="middle" x="812.64" y="-746.76" font-family="Courier,monospace" font-size="14.00">\0&#45;\t</text>
</g>
<!-- STATE_STR_ESCAPE&#45;&gt;STATE_STR_REST -->
<g id="edge56" class="edge">
<title>STATE_STR_ESCAPE&#45;&gt;STATE_STR_REST</title>
<path fill="none" stroke="black" d="M883.48,-730.03C870.02,-726.92 855.28,-724.06 841.52,-722.5 802.64,-718.1 758.87,-723.8 725.34,-730.43"/>
<polygon fill="black" stroke="black" points="724.95,-726.94 715.86,-732.4 726.37,-733.79 724.95,-726.94"/>
<text xml:space="preserve" text-anchor="middle" x="812.64" y="-725.7" font-family="Courier,monospace" font-size="14.00">\v&#45;\xff</text>
</g>
<!-- STATE_IDENT_REST&#45;&gt;STATE_IDENT_REST -->
<g id="edge57" class="edge">
<title>STATE_IDENT_REST&#45;&gt;STATE_IDENT_REST</title>
<path fill="none" stroke="black" d="M663.04,-106.21C662.51,-115.8 664.66,-124 669.48,-124 672.19,-124 674.05,-121.4 675.07,-117.43"/>
<polygon fill="black" stroke="black" points="678.54,-117.96 675.8,-107.72 671.56,-117.43 678.54,-117.96"/>
<text xml:space="preserve" text-anchor="middle" x="669.48" y="-127.2" font-family="Courier,monospace" font-size="14.00">0&#45;9</text>
</g>
<!-- STATE_IDENT_REST&#45;&gt;STATE_IDENT_REST -->
<g id="edge58" class="edge">
<title>STATE_IDENT_REST&#45;&gt;STATE_IDENT_REST</title>
<path fill="none" stroke="black" d="M658.27,-106.02C653.79,-123.72 657.53,-142 669.48,-142 678.9,-142 683.22,-130.62 682.42,-117.12"/>
<polygon fill="black" stroke="black" points="685.92,-116.85 680.91,-107.51 679,-117.94 685.92,-116.85"/>
<text xml:space="preserve" text-anchor="middle" x="669.48" y="-145.2" font-family="Courier,monospace" font-size="14.00">A&#45;Z</text>
</g>
<!-- STATE_IDENT_REST&#45;&gt;STATE_IDENT_REST -->
<g id="edge59" class="edge">
<title>STATE_IDENT_REST&#45;&gt;STATE_IDENT_REST</title>
<path fill="none" stroke="black" d="M654.96,-106.17C644.98,-131.2 649.82,-160 669.48,-160 686.29,-160 692.26,-138.93 687.39,-117.16"/>
<polygon fill="black" stroke="black" points="690.73,-116.14 684.43,-107.62 684.04,-118.21 690.73,-116.14"/>
<text xml:space="preserve" text-anchor="middle" x="669.48" y="-163.2" font-family="Courier,monospace" font-size="14.00">_</text>
</g>
<!-- STATE_IDENT_REST&#45;&gt;STATE_IDENT_REST -->
<g id="edge60" class="edge">
<title>STATE_IDENT_REST&#45;&gt;STATE_IDENT_REST</title>
<path fill="none" stroke="black" d="M652.84,-105.71C636.09,-137.81 641.64,-178 669.48,-178 694.38,-178 701.44,-145.84 690.67,-116.08"/>
<polygon fill="black" stroke="black" points="693.95,-114.85 686.72,-107.1 687.54,-117.66 693.95,-114.85"/>
<text xml:space="preserve" text-anchor="middle" x="669.48" y="-181.2" font-family="Courier,monospace" font-size="14.00">a&#45;z</text>
</g>
</g>
</svg>
